<svg width="459" height="345" viewBox="0 0 459 345" fill="none" xmlns="http://www.w3.org/2000/svg">
<path d="M37.0638 204.012C40.5752 202.334 44.07 213.499 44.07 213.499C50.038 221.376 58.3781 210.897 57.563 222.672C56.1358 243.276 81.3076 229.151 69.6943 250.663C58.0811 272.175 79.9481 262.827 72.7311 280.172C65.5149 297.518 74.8685 318.205 64.0103 309.704C64.0103 309.704 54.4488 288.762 44.5888 282.282C34.7289 275.803 50.496 268.116 47.4108 259.315C42.9295 246.533 32.1335 247.035 39.9176 233.299C47.7023 219.562 25.128 209.713 37.0638 204.012Z" fill="url(#paint0_linear_2147_552)"/>
<path d="M67.449 301.823C62.7425 298.517 57.2339 275.476 56.9051 261.752C56.7366 254.722 54.6565 251.793 52.8203 249.209C51.0657 246.74 49.5507 244.606 50.4336 239.708C52.1205 230.349 47.6855 226.308 47.6406 226.268L48.1546 225.683C48.3515 225.856 52.9702 230.023 51.2004 239.845C50.3756 244.421 51.7351 246.336 53.4559 248.758C55.2624 251.301 57.5103 254.464 57.6843 261.732C58.0367 276.461 63.6689 298.215 67.8973 301.186L67.449 301.823Z" fill="white"/>
<path d="M69.2105 303.53C68.6033 303.53 67.9436 303.461 67.2203 303.314C65.4062 302.948 64.2166 301.992 63.6847 300.473C62.4157 296.848 65.3558 290.961 67.7418 288.123C67.7812 288.076 71.7748 283.2 71.3493 276.443C71.2774 275.31 71.16 274.262 71.0564 273.337C70.7559 270.662 70.539 268.73 71.6892 267.44C72.7026 266.302 74.659 265.81 78.2305 265.793C84.4947 265.763 86.9713 263.174 88.9622 261.091C89.8071 260.207 90.6057 259.372 91.5756 258.843C94.6974 257.141 98.0036 256.891 99.4377 258.249C100.119 258.894 100.694 260.157 99.5655 262.513C98.5348 264.665 97.1974 266.029 96.1225 267.123C94.6766 268.597 93.7219 269.571 94.2193 271.51C94.3361 271.966 94.4708 272.426 94.6055 272.887C95.5712 276.186 96.6655 279.925 91.0133 282.463C89.814 283.001 88.7204 283.43 87.7561 283.808C83.8101 285.354 81.4282 286.289 78.7396 291.957C78.2187 293.055 77.7593 294.095 77.3151 295.101C75.195 299.901 73.591 303.53 69.2105 303.53ZM91.9486 259.527C91.0851 259.998 90.3625 260.754 89.5252 261.629C87.4335 263.817 84.8305 266.54 78.2353 266.571C74.9512 266.586 73.1122 267.015 72.2715 267.957C71.352 268.989 71.5531 270.777 71.8308 273.25C71.9351 274.185 72.0539 275.243 72.1264 276.394C72.5727 283.471 68.5121 288.416 68.3394 288.623C65.9775 291.432 63.3027 297.024 64.4204 300.218C64.8549 301.46 65.849 302.246 67.375 302.553C72.6991 303.628 74.1685 300.301 76.6036 294.789C77.0499 293.779 77.5113 292.733 78.0363 291.626C80.8576 285.679 83.4889 284.648 87.4728 283.086C88.4289 282.711 89.5121 282.287 90.6948 281.755C95.7294 279.496 94.821 276.393 93.8594 273.108C93.7212 272.637 93.5845 272.169 93.4656 271.705C92.8598 269.341 94.0549 268.123 95.5678 266.581C96.6558 265.471 97.8889 264.215 98.8643 262.179C99.3755 261.111 99.7969 259.661 98.903 258.815C97.7259 257.7 94.736 258.007 91.9486 259.527Z" fill="url(#paint1_linear_2147_552)"/>
<path d="M67.3035 308.019L66.5264 307.977C66.5644 307.248 67.5453 290.053 74.4569 285.021C82.0406 279.5 84.4308 273.567 85.5693 269.585C86.9109 264.892 93.7402 263.638 94.0304 263.587L94.1658 264.352C94.0995 264.365 87.5257 265.574 86.3181 269.798C85.1479 273.891 82.6928 279.988 74.9156 285.65C68.3004 290.466 67.3125 307.844 67.3035 308.019Z" fill="url(#paint2_linear_2147_552)"/>
<path d="M83.1068 221.364C78.1945 219.681 79.2148 229.139 77.1389 236.137C75.063 243.135 54.045 239.189 62.8674 256.712C71.6898 274.236 51.7101 262.572 57.678 277.863C63.6459 293.155 58.1961 309.508 64.6835 305.348C71.171 301.189 68.3283 281.933 75.0747 279.645C81.8212 277.357 82.9224 274.688 76.2422 268.468C69.5628 262.248 93.7453 256.073 87.7774 243.513C81.8095 230.953 88.7832 223.307 83.1068 221.364Z" fill="url(#paint3_linear_2147_552)"/>
<path d="M67.6943 304.617C67.0767 301.999 61.8003 278.962 66.723 276.177C71.0627 273.723 70.9556 264.177 70.278 255.163C69.679 247.183 79.939 243.453 80.3763 243.299L80.6367 244.032C80.5351 244.068 70.4997 247.719 71.0544 255.105C71.7494 264.362 71.824 274.186 67.1064 276.855C63.3678 278.97 66.8094 297.484 68.4514 304.44L67.6943 304.617Z" fill="white"/>
<path d="M78.8618 296.414L71.8472 322.993H56.172L49.1582 296.414H78.8618Z" fill="url(#paint4_linear_2147_552)"/>
<path d="M78.8624 296.414C78.8624 296.414 63.4207 299.31 63.4207 322.993H56.1727L49.1582 296.414H78.8624Z" fill="url(#paint5_linear_2147_552)"/>
<path d="M380.357 194.782H342.998V194.116H379.689V164.011H380.357V194.782Z" fill="#78C2FF"/>
<path d="M373.943 140.675H356.082V122.835H373.943V140.675ZM356.677 140.08H373.347V123.429H356.677V140.08Z" fill="#6AAFE8"/>
<path d="M418.399 129.376H377.516V125.016H418.399V129.376ZM378.112 128.782H417.804V125.61H378.112V128.782Z" fill="#6AAFE8"/>
<path d="M418.398 149.658H356.082V145.297H418.398V149.658ZM356.677 149.063H417.803V145.891H356.677V149.063Z" fill="#6AAFE8"/>
<path d="M395.774 158.032H356.082V153.671H395.774V158.032ZM356.677 157.438H395.179V154.266H356.677V157.438Z" fill="#6AAFE8"/>
<path d="M405.201 137.695H377.516V133.334H405.201V137.695ZM378.111 137.1H404.605V133.929H378.111V137.1Z" fill="#6AAFE8"/>
<path d="M425.493 167.516H348.987V113.35H425.493V167.516ZM349.582 166.922H424.898V113.946H349.582V166.922Z" fill="#6AAFE8"/>
<path d="M380.023 164.459C378.672 164.459 377.572 163.362 377.572 162.013C377.572 160.663 378.672 159.565 380.023 159.565C381.373 159.565 382.472 160.663 382.472 162.013C382.472 163.362 381.373 164.459 380.023 164.459ZM380.023 160.232C379.039 160.232 378.24 161.031 378.24 162.013C378.24 162.995 379.039 163.794 380.023 163.794C381.006 163.794 381.805 162.995 381.805 162.013C381.805 161.03 381.006 160.232 380.023 160.232Z" fill="#78C2FF"/>
<path d="M123.893 148.896H79.2637L79.341 148.5C80.0581 144.828 83.3015 142.163 87.0547 142.163C87.5963 142.163 88.1365 142.219 88.6636 142.33C90.9888 137.916 95.5061 135.185 100.516 135.185C104.784 135.185 108.808 137.232 111.33 140.672C112.251 140.393 113.205 140.251 114.175 140.251C119.032 140.251 123.094 143.726 123.834 148.513L123.893 148.896ZM80.0851 148.23H123.105C122.267 144.035 118.495 140.917 114.174 140.917C113.193 140.917 112.229 141.073 111.305 141.379L111.07 141.457L110.928 141.254C108.54 137.871 104.648 135.851 100.515 135.851C95.6719 135.851 91.3128 138.538 89.1395 142.861L89.02 143.099L88.7617 143.035C88.2055 142.898 87.6315 142.829 87.0547 142.829C83.756 142.829 80.8878 145.077 80.0851 148.23Z" fill="#6AAFE8"/>
<path d="M299.875 293.188H230.617H161.359L151.452 330.171H230.617H309.782L299.875 293.188Z" fill="url(#paint6_linear_2147_552)"/>
<path d="M162.45 303.01H171.513C171.892 303.01 172.178 303.304 172.107 303.621L171.23 307.559C171.175 307.803 170.926 307.978 170.635 307.978H161.417C161.03 307.978 160.743 307.673 160.827 307.351L161.86 303.413C161.922 303.177 162.167 303.01 162.45 303.01Z" fill="white"/>
<path d="M175.669 303.01H182.521L181.609 307.978H174.627L175.669 303.01Z" fill="white"/>
<path d="M185.947 303.01H192.798L192.081 307.978L185.099 307.985L185.947 303.01Z" fill="white"/>
<path d="M196.224 303.01H203.075L202.554 307.978H195.572L196.224 303.01Z" fill="white"/>
<path d="M206.501 303.01H213.353L213.027 307.978H206.045L206.501 303.01Z" fill="white"/>
<path d="M216.778 303.01H223.63L223.5 307.978L216.518 307.985L216.778 303.01Z" fill="white"/>
<path d="M299.02 303.01H288.743L289.85 307.978H300.323L299.02 303.01Z" fill="white"/>
<path d="M285.318 303.01H278.466L279.378 307.978H286.36L285.318 303.01Z" fill="white"/>
<path d="M275.04 303.01H268.189L268.906 307.978L275.888 307.985L275.04 303.01Z" fill="white"/>
<path d="M264.763 303.01H257.911L258.432 307.978H265.414L264.763 303.01Z" fill="white"/>
<path d="M254.485 303.01H247.634L247.96 307.978H254.941L254.485 303.01Z" fill="white"/>
<path d="M244.208 303.01H237.356L237.486 307.978L244.469 307.985L244.208 303.01Z" fill="white"/>
<path d="M227.056 303.01H233.907L234.021 307.978H227.056V303.01Z" fill="white"/>
<path d="M159.435 311.679H173.752L172.937 316.804H158.349L159.435 311.679Z" fill="white"/>
<path d="M301.256 311.679H283.559L284.566 316.804H302.599L301.256 311.679Z" fill="white"/>
<path d="M280.019 311.679H272.94L273.747 316.804H280.96L280.019 311.679Z" fill="white"/>
<path d="M269.401 311.679H262.321L262.926 316.804H270.14L269.401 311.679Z" fill="white"/>
<path d="M258.783 311.679H251.703L252.107 316.804H259.32L258.783 311.679Z" fill="white"/>
<path d="M248.164 311.679H241.085L241.287 316.804H248.5L248.164 311.679Z" fill="white"/>
<path d="M157.297 320.813H171.933L170.865 325.904H155.962L157.297 320.813Z" fill="white"/>
<path d="M175.593 320.813H182.911L182.044 325.904H174.592L175.593 320.813Z" fill="white"/>
<path d="M186.571 320.813H193.889H241.455L241.659 325.904H185.77L186.571 320.813Z" fill="white"/>
<path d="M245.119 320.813H252.438L252.838 325.904H245.386L245.119 320.813Z" fill="white"/>
<path d="M256.097 320.813H263.414L264.016 325.904H256.564L256.097 320.813Z" fill="white"/>
<path d="M267.074 320.813H274.393L275.193 325.904H267.742L267.074 320.813Z" fill="white"/>
<path d="M278.052 320.813H285.37L286.372 325.904H278.919L278.052 320.813Z" fill="white"/>
<path d="M289.03 320.813H303.667L305.002 325.904H290.097L289.03 320.813Z" fill="white"/>
<path d="M237.56 311.679H230.539V316.804H237.695L237.56 311.679Z" fill="white"/>
<path d="M226.942 311.679H219.863L219.661 316.804H226.875L226.942 311.679Z" fill="white"/>
<path d="M216.323 311.679H209.245L208.842 316.804H216.055L216.323 311.679Z" fill="white"/>
<path d="M205.705 311.679H198.627L198.021 316.804H205.235L205.705 311.679Z" fill="white"/>
<path d="M195.087 311.679H188.008L187.202 316.804H194.416L195.087 311.679Z" fill="white"/>
<path d="M184.469 311.679H177.39L176.382 316.804H183.595L184.469 311.679Z" fill="white"/>
<path d="M162.784 299.888L163.948 295.453H167.274L166.189 299.888H162.784Z" fill="white"/>
<path d="M170.601 295.453H177.254L176.324 299.888H169.554L170.601 295.453Z" fill="white"/>
<path d="M180.581 295.453H187.234L186.478 299.888H179.708L180.581 295.453Z" fill="white"/>
<path d="M190.561 295.453H197.214L196.633 299.888H189.863L190.561 295.453Z" fill="white"/>
<path d="M200.541 295.453H207.195L206.788 299.888H200.018L200.541 295.453Z" fill="white"/>
<path d="M210.522 295.453H217.175L216.942 299.888H210.173L210.522 295.453Z" fill="white"/>
<path d="M220.501 295.453H227.154L227.096 299.888H220.327L220.501 295.453Z" fill="white"/>
<path d="M230.481 295.453H237.135L237.251 299.888H230.481V295.453Z" fill="white"/>
<path d="M240.461 295.453H247.116L247.406 299.888H240.636L240.461 295.453Z" fill="white"/>
<path d="M250.441 295.453H257.095L257.561 299.888H250.791L250.441 295.453Z" fill="white"/>
<path d="M260.422 295.453H267.075L267.715 299.888H260.946L260.422 295.453Z" fill="white"/>
<path d="M270.402 295.453H277.056L277.869 299.888H271.099L270.402 295.453Z" fill="white"/>
<path d="M280.382 295.453H287.036L288.024 299.888H281.255L280.382 295.453Z" fill="white"/>
<path d="M290.362 295.453H297.016L298.18 299.888H291.409L290.362 295.453Z" fill="white"/>
<path d="M309.782 330.171H151.452V332.353H309.782V330.171Z" fill="url(#paint7_linear_2147_552)"/>
<path d="M220.195 280.966H241.985V214.86H220.195V280.966Z" fill="#518AFA"/>
<path d="M143.635 246.705H318.546C322.203 246.705 325.169 243.743 325.169 240.09V120.741C325.169 117.087 322.203 114.126 318.546 114.126H143.635C139.977 114.126 137.012 117.087 137.012 120.741V240.09C137.012 243.743 139.977 246.705 143.635 246.705Z" fill="url(#paint8_linear_2147_552)"/>
<path d="M143.663 222.606H318.184V120.62H143.663V222.606Z" fill="url(#paint9_linear_2147_552)"/>
<path d="M225.021 235.435C225.021 238.784 227.738 241.498 231.091 241.498C234.443 241.498 237.16 238.783 237.16 235.435C237.16 232.087 234.443 229.373 231.091 229.373C227.738 229.373 225.021 232.087 225.021 235.435Z" fill="#696969"/>
<path d="M280.105 278.472H182.075V283.462H280.105V278.472Z" fill="url(#paint10_linear_2147_552)"/>
<path d="M288.743 69.8356L288.591 69.7576C272.754 61.6819 274.881 46.0402 274.904 45.8829L274.947 45.598H275.234C285.304 45.598 288.468 42.3563 288.499 42.3239L288.745 42.0631L288.989 42.3246C289.018 42.3563 292.184 45.598 302.252 45.598H302.54L302.583 45.8829C302.607 46.0402 304.733 61.6812 288.895 69.7576L288.743 69.8356ZM275.532 46.2638C275.333 48.3828 274.665 61.8095 288.743 69.0869C302.821 61.8102 302.154 48.3828 301.954 46.2638C293.211 46.2093 289.653 43.777 288.743 43.0049C287.834 43.777 284.276 46.2093 275.532 46.2638Z" fill="#6AAFE8"/>
<path d="M173.239 128.428H153.693V130.428H173.239V128.428Z" fill="#E0E0E0"/>
<path d="M192.823 143.481H178.71V145.48H192.823V143.481Z" fill="#E0E0E0"/>
<path d="M204.385 143.481H195.021V145.48H204.385V143.481Z" fill="#1487E3"/>
<path d="M223.518 203.911H214.153V205.91H223.518V203.911Z" fill="#1487E3"/>
<path d="M163.28 181.333H153.915V183.332H163.28V181.333Z" fill="#1487E3"/>
<path d="M228.847 143.481H206.236V145.48H228.847V143.481Z" fill="#E0E0E0"/>
<path d="M168.444 173.752H153.915V175.75H168.444V173.752Z" fill="#E0E0E0"/>
<path d="M207.484 188.859H192.955V190.858H207.484V188.859Z" fill="#E0E0E0"/>
<path d="M261.755 203.911H247.226V205.91H261.755V203.911Z" fill="#E0E0E0"/>
<path d="M183.038 188.859H174.169V190.858H183.038V188.859Z" fill="#E0E0E0"/>
<path d="M171.488 188.859H153.915V190.858H171.488V188.859Z" fill="#1487E3"/>
<path d="M163.607 196.385H153.915V198.385H163.607V196.385Z" fill="#E0E0E0"/>
<path d="M190.918 128.428H177.042V130.428H190.918V128.428Z" fill="#78C2FF"/>
<path d="M190.918 151.007H177.042V153.006H190.918V151.007Z" fill="#1487E3"/>
<path d="M176.033 158.533H170.104V160.532H176.033V158.533Z" fill="#E0E0E0"/>
<path d="M177.492 166.17H164.176V168.169H177.492V166.17Z" fill="#78C2FF"/>
<path d="M197.889 166.17H179.505V168.169H197.889V166.17Z" fill="#1487E3"/>
<path d="M256.107 196.385H237.724V198.385H256.107V196.385Z" fill="#1487E3"/>
<path d="M167.791 158.588H153.915V160.587H167.791V158.588Z" fill="#1487E3"/>
<path d="M162.148 166.17H153.915V168.169H162.148V166.17Z" fill="#1487E3"/>
<path d="M186.596 158.588H178.828V160.587H186.596V158.588Z" fill="#FF8761"/>
<path d="M161.916 203.911H154.148V205.91H161.916V203.911Z" fill="#FF8761"/>
<path d="M167.736 143.481H153.86V145.48H167.736V143.481Z" fill="#78C2FF"/>
<path d="M180.007 181.333H166.131V183.332H180.007V181.333Z" fill="#78C2FF"/>
<path d="M180.177 196.385H166.302V198.385H180.177V196.385Z" fill="#78C2FF"/>
<path d="M204.827 196.385H190.951V198.385H204.827V196.385Z" fill="#78C2FF"/>
<path d="M173.64 151.007H153.86V153.006H173.64V151.007Z" fill="#78C2FF"/>
<path d="M260.424 128.428H246.549V130.428H260.424V128.428Z" fill="#78C2FF"/>
<path d="M210.994 203.911H197.118V205.91H210.994V203.911Z" fill="#78C2FF"/>
<path d="M274.029 128.428H264.741V130.428H274.029V128.428Z" fill="#78C2FF"/>
<path d="M305.455 135.955H296.167V137.953H305.455V135.955Z" fill="#78C2FF"/>
<path d="M212.331 128.428H194.653V130.428H212.331V128.428Z" fill="#1487E3"/>
<path d="M282.42 203.911H264.741V205.91H282.42V203.911Z" fill="#1487E3"/>
<path d="M182.527 203.911H164.849V205.91H182.527V203.911Z" fill="#1487E3"/>
<path d="M281.211 135.955H263.533V137.953H281.211V135.955Z" fill="#1487E3"/>
<path d="M259.531 143.481H241.853V145.48H259.531V143.481Z" fill="#1487E3"/>
<path d="M244.169 203.911H226.491V205.91H244.169V203.911Z" fill="#1487E3"/>
<path d="M241.449 188.859H223.771V190.858H241.449V188.859Z" fill="#1487E3"/>
<path d="M189.625 188.859H185.814V190.858H189.625V188.859Z" fill="#FF8761"/>
<path d="M283.216 149.026L264.53 147.19L264.334 149.18L283.021 151.016L283.216 149.026Z" fill="#78C2FF"/>
<path d="M243.085 128.428H225.407V130.428H243.085V128.428Z" fill="#FF8761"/>
<path d="M228.021 160.252L200.641 148.058L201.459 146.234L228.838 158.428L228.021 160.252Z" fill="#1487E3"/>
<path d="M207.484 181.444H197.118V183.443H207.484V181.444Z" fill="#FF8761"/>
<path d="M222.071 128.428H215.601V130.428H222.071V128.428Z" fill="#E0E0E0"/>
<path d="M201.124 151.007H194.653V153.006H201.124V151.007Z" fill="#E0E0E0"/>
<path d="M291.946 135.955H285.476V137.953H291.946V135.955Z" fill="#E0E0E0"/>
<path d="M163.817 135.955H153.693V137.953H163.817V135.955Z" fill="#1487E3"/>
<path d="M188.697 173.808H180.704V175.806H188.697V173.808Z" fill="#1487E3"/>
<path d="M169.571 135.955H166.302V137.953H169.571V135.955Z" fill="#1487E3"/>
<path d="M260.424 135.955H233.406V137.953H260.424V135.955Z" fill="#E0E0E0"/>
<path d="M234.501 196.385H207.484V198.385H234.501V196.385Z" fill="#E0E0E0"/>
<path d="M175.308 135.955H171.972V137.953H175.308V135.955Z" fill="#FF8761"/>
<path d="M230.911 135.955H222.071V137.953H230.911V135.955Z" fill="#1487E3"/>
<path d="M239.75 143.481H230.911V145.48H239.75V143.481Z" fill="#FF8761"/>
<path d="M220.02 188.859H211.181V190.858H220.02V188.859Z" fill="#FF8761"/>
<path d="M194.298 203.911H185.459V205.91H194.298V203.911Z" fill="#FF8761"/>
<path d="M219.732 135.955H200.925V137.953H219.732V135.955Z" fill="#1487E3"/>
<path d="M263.491 188.859H244.684V190.858H263.491V188.859Z" fill="#1487E3"/>
<path d="M194.407 181.444H183.419V183.443H194.407V181.444Z" fill="#1487E3"/>
<path d="M188.206 196.385H182.712V198.385H188.206V196.385Z" fill="#1487E3"/>
<path d="M198.256 135.955H191.785V137.953H198.256V135.955Z" fill="#78C2FF"/>
<path d="M264.99 196.385H258.52V198.385H264.99V196.385Z" fill="#FF8761"/>
<path d="M176.476 143.481H170.005V145.48H176.476V143.481Z" fill="#FF8761"/>
<path d="M177.765 173.808H171.294V175.806H177.765V173.808Z" fill="#FF8761"/>
<path d="M189.317 135.955H178.043V137.953H189.317V135.955Z" fill="#1487E3"/>
<path d="M153.693 181.88H104.587V145.84H105.254V181.214H153.693V181.88Z" fill="#78C2FF"/>
<path d="M253.172 144.48H252.505V96.7801H288.41V65.5272H289.077V97.4466H253.172V144.48Z" fill="#78C2FF"/>
<path d="M151.217 211.71C151.214 211.709 151.212 211.708 151.208 211.709C151.245 211.726 151.25 211.727 151.217 211.71Z" fill="#323657"/>
<path d="M310.819 78.0859H305.095V77.4201H310.152V72.3734H310.819V78.0859Z" fill="#6AAFE8"/>
<path d="M272.327 78.0859H266.603V72.3734H267.269V77.4201H272.327V78.0859Z" fill="#6AAFE8"/>
<path d="M267.272 39.6419H266.604V33.9239H272.324V34.5904H267.272V39.6419Z" fill="#6AAFE8"/>
<path d="M310.819 39.6391H310.152V34.5931H305.095V33.9266H310.819V39.6391Z" fill="#6AAFE8"/>
<path d="M310.819 48.1772H310.152V63.8354H310.819V48.1772Z" fill="#6AAFE8"/>
<path d="M267.269 48.1772H266.603V63.8354H267.269V48.1772Z" fill="#6AAFE8"/>
<path d="M104.92 146.174C103.569 146.174 102.471 145.076 102.471 143.727C102.471 142.378 103.57 141.28 104.92 141.28C106.272 141.28 107.37 142.378 107.37 143.727C107.37 145.076 106.271 146.174 104.92 146.174ZM104.92 141.946C103.937 141.946 103.137 142.745 103.137 143.727C103.137 144.709 103.937 145.508 104.92 145.508C105.903 145.508 106.703 144.71 106.703 143.727C106.703 142.745 105.903 141.946 104.92 141.946Z" fill="#78C2FF"/>
<path d="M288.743 65.8605C287.392 65.8605 286.293 64.7627 286.293 63.4138C286.293 62.0641 287.392 60.9663 288.743 60.9663C290.094 60.9663 291.193 62.0641 291.193 63.4138C291.192 64.762 290.094 65.8605 288.743 65.8605ZM288.743 61.6329C287.76 61.6329 286.96 62.4312 286.96 63.4138C286.96 64.3956 287.76 65.1947 288.743 65.1947C289.726 65.1947 290.526 64.3956 290.526 63.4138C290.526 62.4312 289.726 61.6329 288.743 61.6329Z" fill="#78C2FF"/>
<path d="M122.116 54.0298H105.298V37.2317H122.116V54.0298ZM105.966 53.3632H121.45V37.8983H105.966V53.3632Z" fill="#A1D4FF"/>
<path d="M114.041 41.8105H113.374V49.64H114.041V41.8105Z" fill="#A1D4FF"/>
<path d="M117.627 45.3917H109.788V46.0582H117.627V45.3917Z" fill="#A1D4FF"/>
<path d="M378.401 74.293H354.362V57.1527H378.401V74.293ZM355.03 73.6265H377.734V57.8186H355.03V73.6265Z" fill="#A1D4FF"/>
<path d="M366.381 67.5344L354.483 57.7427L354.908 57.2286L366.381 66.6713L377.856 57.2286L378.279 57.7427L366.381 67.5344Z" fill="#A1D4FF"/>
<path d="M369.67 64.6382L369.186 65.0969L377.814 74.1822L378.298 73.7235L369.67 64.6382Z" fill="#A1D4FF"/>
<path d="M363.088 64.6594L354.464 73.748L354.948 74.2065L363.572 65.1179L363.088 64.6594Z" fill="#A1D4FF"/>
<path d="M84.3841 193.739L84.134 193.086C83.9095 193.056 83.6898 193.006 83.4757 192.935L82.9652 193.413L81.4841 192.361L81.7694 191.722C81.6326 191.544 81.5124 191.353 81.4115 191.151L80.7118 191.129L80.4092 189.337L81.0634 189.088C81.0924 188.865 81.1428 188.645 81.214 188.431L80.7352 187.922L81.7894 186.443L82.4277 186.728C82.6067 186.59 82.798 186.471 82.9997 186.37L83.0225 185.671L84.8152 185.369L85.0653 186.022C85.2898 186.052 85.5101 186.101 85.7236 186.172L86.2334 185.695L87.7145 186.747L87.4292 187.385C87.566 187.564 87.6862 187.755 87.7877 187.957L88.4868 187.979L88.7894 189.769L88.1352 190.02C88.1055 190.243 88.0551 190.463 87.9839 190.677L88.4627 191.186L87.4092 192.666L86.7702 192.381C86.592 192.518 86.3999 192.638 86.1982 192.739L86.1754 193.438L84.3841 193.739ZM83.3589 192.359L83.5054 192.415C83.7707 192.517 84.0498 192.58 84.3351 192.605L84.4912 192.618L84.7053 193.178L85.6897 193.012L85.7091 192.413L85.8528 192.349C86.1139 192.233 86.3564 192.081 86.5733 191.899L86.6928 191.798L87.2406 192.042L87.8195 191.229L87.4092 190.792L87.4651 190.646C87.5667 190.381 87.6309 190.102 87.6551 189.818L87.6689 189.662L88.2292 189.448L88.0634 188.465L87.4631 188.446L87.3995 188.303C87.2828 188.042 87.1308 187.799 86.9484 187.583L86.8476 187.463L87.0914 186.915L86.2776 186.338L85.841 186.748L85.6946 186.691C85.4286 186.59 85.1502 186.526 84.8656 186.501L84.7095 186.487L84.4946 185.928L83.5095 186.094L83.4902 186.692L83.3472 186.757C83.0861 186.873 82.8436 187.025 82.6267 187.207L82.5065 187.308L81.9587 187.064L81.3798 187.877L81.7901 188.313L81.7342 188.459C81.6326 188.725 81.5684 189.003 81.5442 189.287L81.5304 189.442L80.9694 189.658L81.1352 190.641L81.7348 190.659L81.7991 190.802C81.9152 191.064 82.0671 191.306 82.2502 191.523L82.3511 191.642L82.1065 192.189L82.9203 192.767L83.3589 192.359ZM84.5962 191.529C84.1893 191.529 83.7921 191.402 83.4543 191.162C82.5659 190.532 82.358 189.296 82.9901 188.409C83.6215 187.523 84.8587 187.314 85.7464 187.946C86.6348 188.576 86.8427 189.812 86.2113 190.699C85.9053 191.128 85.4493 191.413 84.9292 191.501C84.8173 191.52 84.706 191.529 84.5962 191.529ZM84.6017 188.08C84.1396 188.08 83.6843 188.295 83.3969 188.699C83.1683 189.02 83.0785 189.411 83.1441 189.799C83.2097 190.187 83.4225 190.528 83.7437 190.756C84.065 190.984 84.4573 191.074 84.8456 191.009C85.2345 190.942 85.5751 190.73 85.803 190.41C86.2756 189.747 86.1194 188.825 85.4563 188.353C85.1972 188.168 84.8981 188.08 84.6017 188.08Z" fill="#A1D4FF"/>
<path d="M70.4961 195.828L69.9372 194.371C69.3382 194.303 68.7504 194.169 68.1839 193.969L67.0461 195.037L63.9541 192.84L64.591 191.415C64.2173 190.946 63.8967 190.436 63.637 189.893L62.075 189.844L61.4443 186.105L62.9033 185.548C62.9703 184.95 63.1057 184.362 63.3054 183.797L62.2367 182.66L64.4369 179.572L65.8628 180.208C66.3318 179.834 66.843 179.515 67.3874 179.255L67.4371 177.695L71.1793 177.065L71.7374 178.522C72.3364 178.59 72.9243 178.724 73.49 178.924L74.6285 177.856L77.7206 180.054L77.0843 181.478C77.4588 181.947 77.7779 182.458 78.0383 183L79.5996 183.05L80.2303 186.788L78.7713 187.345C78.7036 187.944 78.5696 188.531 78.3699 189.097L79.4386 190.234L77.2384 193.322L75.8125 192.686C75.3435 193.06 74.8323 193.379 74.2886 193.64L74.2389 195.199L70.4961 195.828ZM68.0305 193.2L68.2254 193.274C68.8588 193.517 69.5241 193.669 70.2031 193.726L70.4118 193.744L70.923 195.08L73.5874 194.631L73.6323 193.203L73.8237 193.118C74.4461 192.841 75.025 192.479 75.5438 192.043L75.7034 191.908L77.009 192.491L78.5758 190.291L77.5976 189.25L77.6722 189.055C77.9147 188.423 78.0674 187.758 78.1254 187.079L78.1427 186.871L79.4794 186.361L79.0304 183.699L77.6004 183.655L77.5154 183.463C77.2377 182.842 76.8757 182.264 76.4391 181.745L76.3044 181.585L76.8875 180.281L74.6851 178.716L73.6427 179.693L73.4479 179.619C72.8144 179.376 72.1492 179.224 71.4694 179.166L71.2608 179.148L70.7496 177.813L68.0851 178.262L68.0395 179.69L67.8489 179.775C67.2257 180.052 66.6468 180.414 66.128 180.85L65.9685 180.984L64.6628 180.402L63.0961 182.602L64.0749 183.643L64.0003 183.838C63.7572 184.47 63.6052 185.135 63.5472 185.814L63.5292 186.021L62.1925 186.532L62.6415 189.194L64.0722 189.239L64.1572 189.43C64.4349 190.052 64.7975 190.63 65.2341 191.149L65.3688 191.307L64.7858 192.611L66.9881 194.176L68.0305 193.2ZM70.8318 190.756C69.9662 190.756 69.0923 190.497 68.3352 189.958C67.3957 189.291 66.7733 188.298 66.5812 187.163C66.3899 186.027 66.6524 184.885 67.3211 183.947C68.7013 182.01 71.401 181.555 73.3401 182.934C75.2792 184.312 75.7345 187.009 74.3542 188.946C73.5128 190.126 72.1823 190.756 70.8318 190.756ZM70.8449 182.801C70.6411 182.801 70.436 182.818 70.2308 182.852C69.2692 183.014 68.4291 183.54 67.8641 184.334C67.299 185.126 67.0772 186.092 67.2389 187.052C67.4005 188.012 67.9276 188.852 68.7214 189.416C70.3607 190.581 72.6438 190.197 73.8099 188.56C74.375 187.767 74.5974 186.802 74.4351 185.842C74.2734 184.881 73.7463 184.042 72.9526 183.477C72.3288 183.033 71.5965 182.801 70.8449 182.801Z" fill="#A1D4FF"/>
<path d="M213.245 86.3915C206.383 86.3915 200.799 80.8149 200.799 73.9597H201.466C201.466 80.4471 206.75 85.7249 213.245 85.7249C219.74 85.7249 225.024 80.4471 225.024 73.9597C225.024 67.4724 219.74 62.1952 213.245 62.1952V61.5287C220.108 61.5287 225.692 67.106 225.692 73.9604C225.692 80.8149 220.108 86.3915 213.245 86.3915ZM213.245 84.663C207.337 84.663 202.529 79.8613 202.529 73.9597C202.529 68.0582 207.337 63.2565 213.245 63.2565C219.154 63.2565 223.961 68.0582 223.961 73.9597H223.294C223.294 68.4259 218.786 63.923 213.245 63.923C207.704 63.923 203.197 68.4252 203.197 73.9597C203.197 79.4942 207.704 83.9965 213.245 83.9965V84.663Z" fill="#78C2FF"/>
<path d="M211.719 78.0783L207.23 73.5947L207.702 73.1235L211.719 77.1358L218.786 70.0778L219.258 70.5484L211.719 78.0783Z" fill="#78C2FF"/>
<path d="M316.126 246.451C316.126 246.451 316.734 248.835 316.817 249.195C316.9 249.554 320.643 248.566 320.643 248.566L320.64 245.648C320.64 245.648 316.566 246.057 316.126 246.451Z" fill="#5C544D"/>
<path d="M316.742 248.891C316.742 248.891 315.694 250.48 314.597 251.242C313.5 252.004 309.265 252.989 308.647 253.723C308.201 254.252 307.58 256.254 314.376 255.34C319.203 254.691 321.586 254.854 322.02 254.014C322.453 253.173 320.643 248.305 320.643 248.305C320.643 248.305 319.609 248.866 316.742 248.891Z" fill="#3C4145"/>
<path d="M315.333 314.32L301.769 176.274L303.478 176.109L317.042 314.155L315.333 314.32Z" fill="#F0C141"/>
<path d="M331.132 173.414L329.422 173.581L342.99 311.625L344.7 311.457L331.132 173.414Z" fill="#F0C141"/>
<path d="M330.492 175.848L302.839 178.528L303.005 180.236L330.658 177.555L330.492 175.848Z" fill="#F0C141"/>
<path d="M331.76 188.703L304.104 191.37L304.269 193.078L331.925 190.411L331.76 188.703Z" fill="#F0C141"/>
<path d="M333.007 201.503L305.354 204.186L305.52 205.894L333.173 203.21L333.007 201.503Z" fill="#F0C141"/>
<path d="M334.262 214.385L306.606 217.055L306.772 218.762L334.428 216.092L334.262 214.385Z" fill="#F0C141"/>
<path d="M335.508 227.199L307.855 229.891L308.022 231.599L335.675 228.907L335.508 227.199Z" fill="#F0C141"/>
<path d="M336.736 240.053L309.083 242.734L309.249 244.442L336.901 241.761L336.736 240.053Z" fill="#F0C141"/>
<path d="M337.984 252.897L310.331 255.578L310.497 257.285L338.149 254.605L337.984 252.897Z" fill="#F0C141"/>
<path d="M339.239 265.728L311.587 268.409L311.753 270.117L339.405 267.436L339.239 265.728Z" fill="#F0C141"/>
<path d="M340.479 278.584L312.826 281.265L312.992 282.972L340.645 280.291L340.479 278.584Z" fill="#F0C141"/>
<path d="M341.741 291.432L314.089 294.124L314.255 295.831L341.908 293.139L341.741 291.432Z" fill="#F0C141"/>
<path d="M342.986 304.258L315.333 306.938L315.499 308.646L343.152 305.966L342.986 304.258Z" fill="#F0C141"/>
<path d="M311.509 196.243C311.509 196.243 308.785 206.346 308.067 209.958C307.441 213.105 306.182 221.485 306.004 223.478C305.825 225.471 314.045 244.757 314.9 248.241L322.389 247.041C322.389 247.041 314.488 226.967 316.549 222.506C319.614 215.872 320.014 216.072 322.429 210.607C324.843 205.142 330.372 205.013 331.856 194.873C331.856 194.873 313.519 193.028 311.509 196.243Z" fill="#3C4145"/>
<path d="M324.825 147.155C324.825 147.155 319.853 145.3 317.559 149.081C315.267 152.862 315.487 160.431 317.994 161.361C320.501 162.292 324.266 161.806 325.55 159.44C326.833 157.074 327.991 153.654 327.936 151.368C327.88 149.083 326.131 147.815 324.825 147.155Z" fill="#EEA886"/>
<path d="M318.829 161.129C318.829 161.129 319.03 162.432 318.699 163.073C318.366 163.714 324.953 163.731 324.953 163.731C324.953 163.731 325.488 160.243 326.502 157.295C327.516 154.347 318.829 161.129 318.829 161.129Z" fill="#EEA886"/>
<path d="M326.502 157.295C326.502 157.295 326.047 158.044 324.191 157.754C322.335 157.463 320.071 154.997 319.296 154.726C318.522 154.455 318.514 154.001 318.514 154.001L318.029 154.709L317.207 154.761C317.207 154.761 317.957 152.555 316.825 151.656C315.692 150.756 318 144.516 323.951 146.593C323.951 146.593 328.522 147.852 328.356 150.448C328.189 153.044 327.524 156.001 326.502 157.295Z" fill="#3A3F47"/>
<path d="M318.637 153.056C318.741 152.621 319.85 151.376 320.274 152.709C320.699 154.041 319.633 155.834 319.039 155.681C318.444 155.527 318.373 154.16 318.637 153.056Z" fill="#EEA886"/>
<path d="M337.604 180.12C337.549 180.772 336.804 181.477 336.297 181.825C335.971 182.048 335.581 182.183 335.162 182.197L334.867 182.208L329.699 182.384C329.699 182.384 325.857 169.982 333.064 165.252C333.287 165.274 338.104 174.143 337.604 180.12Z" fill="#518AFA"/>
<path d="M322.019 254.014C321.584 254.855 319.202 254.691 314.374 255.339C313.055 255.517 312.015 255.586 311.199 255.574L310.918 252.673C312.33 252.183 313.972 251.677 314.597 251.243C315.694 250.481 316.742 248.891 316.742 248.891C319.608 248.867 320.642 248.305 320.642 248.305C320.642 248.305 322.452 253.173 322.019 254.014Z" fill="#3C4145"/>
<path d="M318.825 162.695C318.825 162.695 322.88 161.753 325.165 162.523L325.511 162.842C325.511 162.842 326.205 164.172 323.591 164.287C320.976 164.401 316.865 164.591 318.825 162.695Z" fill="#FFD255"/>
<path d="M334.671 257.603C334.671 257.603 335.279 259.987 335.362 260.347C335.445 260.706 339.187 259.717 339.187 259.717L339.184 256.8C339.184 256.8 335.111 257.211 334.671 257.603Z" fill="#5C544D"/>
<path d="M331.855 194.873C331.855 194.873 333.22 200.496 333.624 206.126C333.998 211.329 334.678 217.035 335.218 222.477C335.82 228.543 337.539 238.35 337.629 241.595C337.719 244.84 340.453 259.022 340.453 259.022L333.458 259.824C333.458 259.824 328.914 234.763 327.84 232.201C326.767 229.64 321.444 211.376 321.265 209.327C321.085 207.277 331.855 194.873 331.855 194.873Z" fill="#3C4145"/>
<path d="M335.288 260.043C335.288 260.043 334.239 261.632 333.143 262.394C332.045 263.156 327.81 264.142 327.192 264.874C326.745 265.404 326.124 267.406 332.921 266.492C337.748 265.843 340.131 266.007 340.564 265.166C340.998 264.325 339.188 259.456 339.188 259.456C339.188 259.456 338.155 260.018 335.288 260.043Z" fill="#3C4145"/>
<path d="M310.094 208.862C309.498 208.777 311.573 191.039 311.414 189.927C311.308 189.185 311.325 183.42 311.368 179.826L310.719 176.189C310.358 175.927 309.873 175.623 309.294 175.289C308.392 174.769 307.261 174.175 306.004 173.547C306.15 172.688 306.251 172.012 306.291 171.617C306.604 168.422 308.752 166.729 309.97 166.017C310.467 165.726 310.809 165.599 310.809 165.599C311.272 165.402 311.727 165.213 312.167 165.031C315.101 163.825 318.827 162.694 318.827 162.694H324.812C324.812 162.694 329.369 163.604 332.084 164.713C332.432 164.856 332.758 165.038 333.065 165.251L332.251 182.295C332.251 182.299 332.251 182.302 332.25 182.306C332.249 182.312 332.248 182.319 332.246 182.328C331.88 184.727 331.495 187.555 331.366 189.537C331.314 190.348 332.241 194.695 332.725 198.687L334.418 208.238C334.418 208.238 333.439 212.196 310.094 208.862Z" fill="#518AFA"/>
<path d="M279.535 153.584C279.535 153.584 279.888 154.022 280.136 154.138C280.136 154.138 280.603 154.314 280.927 154.459C281.03 154.505 281.118 154.548 281.173 154.582C281.4 154.722 281.856 155.098 282.496 155.282C283.135 155.466 286.027 156.124 286.027 156.124L286.699 154.41L287.181 153.026C287.181 153.026 284.505 149.562 283.929 149.323C283.872 149.299 283.816 149.279 283.761 149.264C283.254 149.108 282.811 149.204 282.535 149.152C282.433 149.134 281.414 149.02 281.194 149.232C280.887 149.526 280.795 149.855 280.847 150.141C280.847 150.141 280.273 150.745 280.231 151.305C280.231 151.305 279.682 151.844 279.829 152.555C279.829 152.555 279.335 153.164 279.535 153.584Z" fill="#EEA886"/>
<path d="M310.527 176.053C309.859 175.624 308.994 175.042 306.003 173.547C300.435 170.765 293.56 165.72 292.253 164.991C290.243 163.871 283.893 156.122 283.893 156.122C284.221 154.955 287.231 152.613 287.231 152.613C287.231 152.613 296.857 161.719 298.961 162.841C300.769 163.804 309.705 164.778 312.166 165.031C312.566 165.071 312.795 165.094 312.795 165.094C315.367 168.597 311.962 176.977 310.527 176.053Z" fill="#518AFA"/>
<path d="M128.566 109.958C128.566 109.958 126.859 106.827 125.887 105.7C124.915 104.574 121.688 103.728 122.127 102.289C122.565 100.849 126.89 101.475 128.081 102.884C129.272 104.293 132.907 104.793 133.033 105.387C133.158 105.982 131.77 109.237 130.991 109.769C130.212 110.302 128.566 109.958 128.566 109.958Z" fill="#6A75BA"/>
<path d="M121.308 112.611C121.308 112.611 118.526 110.408 117.186 109.758C115.847 109.11 112.548 109.614 112.379 108.119C112.209 106.624 116.427 105.482 118.08 106.303C119.733 107.124 123.268 106.141 123.62 106.637C123.972 107.134 123.992 110.671 123.489 111.469C122.984 112.266 121.308 112.611 121.308 112.611Z" fill="#545D94"/>
<path d="M127.485 118.346C127.485 118.346 128.7 110.051 128.644 108.612C128.629 108.2 131.144 108.353 131.026 109.144C130.77 110.864 131.931 117.532 131.73 118.752C131.528 119.974 127.382 119.115 127.485 118.346Z" fill="#EEA886"/>
<path d="M123.68 120.73C123.68 120.73 121.405 112.676 120.874 111.336C120.638 110.74 122.957 109.817 123.271 110.88C123.765 112.549 127.437 118.22 127.737 119.42C128.037 120.621 123.89 121.477 123.68 120.73Z" fill="#EEA886"/>
<path d="M125.261 126.328C125.261 126.328 122.817 118.096 122.44 117.219L126.295 114.84C126.295 114.84 128.081 120.099 128.332 121.413C128.583 122.728 125.261 126.328 125.261 126.328Z" fill="#207CD6"/>
<path d="M193.489 104.578C193.489 104.578 189.767 105.518 187.996 108.329C186.225 111.141 184.694 114.379 181.367 115.848C178.039 117.317 178.018 121.103 178.277 121.686C178.536 122.271 188.759 133.748 190.989 134.192C193.22 134.635 197.396 134.326 196.949 131.377C196.502 128.428 192.126 122.084 194.582 118.884C197.039 115.683 197.658 112.734 197.658 112.734L193.489 104.578Z" fill="#2E334D"/>
<path d="M192.841 118.305C192.841 118.305 192.732 118.269 192.55 118.252C192.338 118.232 192.03 118.238 191.679 118.356C191.592 118.385 191.475 118.444 191.338 118.525C190.454 119.046 188.361 120.459 188.078 120.493C187.751 120.531 188.027 115.655 188.027 115.655C188.027 115.655 189.141 113.685 189.282 112.389C189.422 111.093 192.841 118.305 192.841 118.305Z" fill="#EEA886"/>
<path d="M166.657 123.401C166.657 123.401 162.568 120.537 157.773 121.43C152.979 122.321 152.462 124.56 150.816 124.662C149.171 124.763 143.672 124.294 139.159 125.608C134.647 126.923 130.839 127.064 130.323 126.688C129.806 126.313 133.142 118.8 133.142 117.768L127.549 116.313C127.549 116.313 125.95 122.979 125.324 124.482C124.654 126.089 123.365 129.114 125.199 131.744C127.032 134.373 132.155 133.188 135.258 133.718C138.36 134.248 152.246 133.908 154.672 133.778C157.304 133.637 165.248 133.261 165.248 133.261L166.657 123.401Z" fill="#207CD6"/>
<path d="M200.245 108.557C200.245 108.557 200.506 112.592 199.609 113.802C199.249 114.287 199.006 114.55 198.843 114.692C198.613 114.892 198.435 115.144 198.332 115.432C198.055 116.208 197.884 117.299 197.663 117.533C197.423 117.787 196.725 117.141 196.472 117.139C196.22 117.138 193.759 119.26 193.171 118.825C192.582 118.391 188.992 114.752 189.293 112.257C189.595 109.762 190.697 106.037 194.739 106.061C198.782 106.083 199.936 107.553 200.245 108.557Z" fill="#EEA886"/>
<path d="M188.029 127.814C187.951 127.98 186.465 130.35 184.837 131.726C184.161 132.297 183.461 132.697 182.827 132.697C182.634 132.697 182.444 132.699 182.261 132.704C180.393 132.755 178.957 133.04 176.435 133.166C173.814 133.296 167.457 132.931 167.268 132.931C167.08 132.931 165.247 133.26 165.247 133.26C164.589 132.462 166.328 123.447 166.657 123.4C166.986 123.353 169.101 124.152 171.123 123.823C173.144 123.494 173.942 123.306 176.951 119.785C179.959 116.264 182.968 115.371 184.237 115.653C185.506 115.935 188.029 115.653 188.029 115.653C188.029 115.653 188.139 127.58 188.029 127.814Z" fill="#FFC955"/>
<path d="M198.547 111.446C198.547 111.446 199.3 113.396 199.699 113.664C199.699 113.664 201.153 112.128 200.22 108.339C199.286 104.549 195.764 104.193 193.49 104.578C190.66 105.057 187.81 114.622 187.958 115.554C188.104 116.485 191.276 110.61 194.054 111.083C196.832 111.556 196.854 111.71 198.547 111.446Z" fill="#2E334D"/>
<path d="M192.549 118.252C192.338 118.232 192.029 118.238 191.678 118.356C191.591 118.385 191.474 118.444 191.337 118.525C190.687 117.513 190.085 115.112 190.065 115.031C190.499 116.345 192.549 118.252 192.549 118.252Z" fill="#A77860"/>
<path d="M184.837 131.727C184.161 132.298 183.462 132.697 182.827 132.697C182.634 132.697 182.445 132.7 182.262 132.705L183.031 125.232L184.837 131.727Z" fill="#C29941"/>
<path d="M199.463 144.594L197.658 146.234C196.102 145.401 192.201 142.597 191.451 141.958C190.663 141.288 185.415 136.904 184.695 135.904C183.967 134.905 183.047 124.577 183.14 124.104C183.234 123.637 187.702 123.398 188.21 124.491C188.21 124.491 188.443 130.381 188.563 131.367C188.677 132.353 189.055 133.244 189.732 134.073C190.669 135.221 192.665 137.888 194.596 140.042C195.058 140.556 198.867 144.082 199.463 144.594Z" fill="#EEA886"/>
<path d="M188.577 124.622C188.577 124.622 188.859 116.778 186.305 116.875C183.076 116.998 182.592 120.944 183.03 125.232C183.03 125.232 187.856 125.279 188.577 124.622Z" fill="#FFC955"/>
<path d="M198.594 143.826C198.594 143.826 198.834 144.204 199.183 144.322C199.784 144.525 200.673 144.134 201.111 144.921C201.55 145.707 199.433 147.672 198.865 147.791C198.296 147.91 197.384 147.027 196.672 145.282C195.959 143.538 198.594 143.826 198.594 143.826Z" fill="#EEA886"/>
<path d="M200.925 144.676C200.925 144.676 202.005 145.497 203.097 146.551C204.055 147.476 205.029 148.69 204.783 148.919C204.447 149.233 203.794 148.19 202.783 147.334C201.852 146.545 201.905 146.849 201.905 146.849C201.905 146.849 201.894 146.762 202.744 147.81C203.656 148.937 204.6 150.274 204.318 150.467C204.142 150.588 204.133 150.62 203.735 150.263C203.92 150.515 203.876 150.599 203.778 150.681C203.269 151.107 201.67 149.649 201.034 149.07C201.519 149.518 201.827 149.896 201.335 149.954C200.772 150.02 198.602 147.861 197.752 147.158C196.825 146.392 200.925 144.676 200.925 144.676Z" fill="#EEA886"/>
<path d="M168.494 123.76C168.494 123.76 167.632 129.933 168.057 132.969C168.057 132.969 168.507 133.302 169.401 133.033C169.401 133.033 169.625 126.295 170.125 123.903C170.125 123.903 169.85 123.695 168.494 123.76Z" fill="#E0E0E0"/>
<path d="M169.367 12.6477H168.699V128.428H169.367V12.6477Z" fill="#E0E0E0"/>
<path d="M112.009 297.5C112.009 297.5 111.67 299.869 111.628 300.225C111.586 300.581 107.863 300.015 107.863 300.015L107.562 297.195C107.562 297.195 111.543 297.166 112.009 297.5Z" fill="#5C544D"/>
<path d="M111.668 299.924C111.668 299.924 112.848 301.351 113.988 301.974C115.129 302.595 116.921 302.843 117.596 303.486C118.083 303.951 119.37 305.953 114.632 305.913C109.894 305.872 107.609 306.195 107.101 305.428C106.594 304.661 107.836 299.764 107.836 299.764C107.836 299.764 108.958 300.171 111.668 299.924Z" fill="#3C4145"/>
<path d="M138.684 297.5C138.684 297.5 138.346 299.869 138.304 300.225C138.261 300.581 134.538 300.015 134.538 300.015L134.236 297.195C134.236 297.195 138.219 297.166 138.684 297.5Z" fill="#5C544D"/>
<path d="M138.342 299.924C138.342 299.924 139.522 301.351 140.663 301.974C141.803 302.595 146.002 303.107 146.676 303.751C147.163 304.216 147.973 306.088 141.307 305.913C136.57 305.788 134.284 306.195 133.776 305.428C133.268 304.661 134.511 299.764 134.511 299.764C134.511 299.764 135.568 300.198 138.342 299.924Z" fill="#3C4145"/>
<path d="M113.332 236.34C113.332 236.34 111.35 242.218 111.612 247.284C111.873 252.35 110.587 257.894 110.061 263.186C109.476 269.086 107.078 283.053 106.991 286.209C106.904 289.365 107.364 299.443 107.364 299.443L112.163 299.553C112.163 299.553 116.194 275.135 117.238 272.644C118.281 270.152 123.458 252.39 123.632 250.397C123.805 248.404 113.332 236.34 113.332 236.34Z" fill="#33373B"/>
<path d="M133.506 237.386C133.506 237.386 136.142 251.27 136.491 254.371C136.838 257.471 137.07 269.376 137.244 271.315C137.418 273.253 138.404 296.674 139.332 299.553H133.196C133.196 299.553 128.486 282.527 128.486 274.47C128.486 266.414 124.848 256.957 122.5 251.642C120.151 246.327 114.775 246.2 113.331 236.339C113.331 236.339 131.551 234.258 133.506 237.386Z" fill="#3C4145"/>
<path d="M121.038 189.932C121.038 189.932 125.874 188.127 128.104 191.805C130.334 195.482 130.119 202.843 127.681 203.749C125.243 204.655 121.581 204.181 120.333 201.88C119.085 199.579 117.958 196.253 118.013 194.03C118.067 191.806 119.769 190.573 121.038 189.932Z" fill="#EEA886"/>
<path d="M126.87 203.522C126.87 203.522 126.675 204.789 126.997 205.412C127.321 206.035 120.914 206.053 120.914 206.053C120.914 206.053 120.394 202.66 119.408 199.794C118.422 196.927 126.87 203.522 126.87 203.522Z" fill="#EEA886"/>
<path d="M119.409 199.794C119.409 199.794 119.851 200.522 121.655 200.239C123.46 199.957 125.662 197.558 126.416 197.294C127.169 197.031 127.176 196.589 127.176 196.589L127.648 197.278L128.449 197.328C128.449 197.328 127.718 195.182 128.82 194.307C129.921 193.433 127.676 187.363 121.889 189.384C121.889 189.384 117.443 190.608 117.605 193.134C117.767 195.659 118.413 198.535 119.409 199.794Z" fill="#FCCCA2"/>
<path d="M127.377 205.338C127.377 205.338 127.357 204.146 126.816 204.032C126.275 203.916 120.846 203.395 120.183 203.656V205.045C120.183 205.045 121.461 205.831 127.377 205.338Z" fill="#E2D2CA"/>
<path d="M127.056 195.671C126.955 195.247 125.877 194.037 125.464 195.333C125.051 196.629 126.088 198.372 126.666 198.223C127.244 198.074 127.313 196.745 127.056 195.671Z" fill="#EEA886"/>
<path d="M127.378 205.338C127.378 205.338 130.354 206.407 133.801 207.869C133.801 207.869 137.766 209.347 138.196 213.722C138.424 216.044 140.899 228.367 141.362 229.409C141.826 230.452 147.315 247.202 147.508 247.549C147.701 247.896 143.029 249.834 142.719 249.679C142.41 249.525 137.405 234.402 136.903 233.281C136.903 233.281 134.022 224.214 133.945 222.862C133.945 222.862 133.862 226.715 133.708 227.796C133.553 228.877 136.269 249.874 136.192 250.454C136.114 251.033 123.846 251.768 118.935 251.228C114.025 250.687 110.062 249.559 110.062 249.559C110.062 249.559 113.926 232.988 113.807 231.151C113.549 227.148 112.209 219.609 112.209 219.609L108.206 227.148L113.331 240.318L112.157 244.321C112.157 244.321 102.633 229.947 102.325 228.634C102.015 227.321 102.792 225.648 103.294 224.566C103.797 223.486 107.098 215.255 107.871 214.097C108.645 212.938 109.951 208.299 113.11 207.007C115.751 205.928 120.182 205.043 120.182 205.043L127.378 205.338Z" fill="#495054"/>
<path d="M133.92 255.13L156.355 249.383L152.342 233.749L129.906 239.496L133.92 255.13Z" fill="#D6D6D6"/>
<path d="M149.461 250.968C149.461 250.968 150.102 252.003 150.337 252.298C150.571 252.594 149.761 252.779 149.414 252.48C149.068 252.181 149.461 250.968 149.461 250.968Z" fill="#C98462"/>
<path d="M144.79 254.502C144.79 254.502 144.411 254.108 144.329 253.855C144.329 253.855 144.216 253.383 144.116 253.053C144.084 252.948 144.053 252.857 144.028 252.801C143.92 252.565 143.613 252.078 143.514 251.439C143.415 250.801 143.136 247.934 143.136 247.934L144.874 247.496L146.27 247.201C146.27 247.201 149.286 250.206 149.447 250.791C149.462 250.848 149.475 250.905 149.484 250.96C149.572 251.468 149.424 251.883 149.44 252.155C149.445 252.254 149.43 253.251 149.198 253.438C148.876 253.696 148.547 253.745 148.277 253.659C148.277 253.659 147.623 254.139 147.078 254.11C147.078 254.11 146.488 254.572 145.82 254.343C145.82 254.343 145.171 254.746 144.79 254.502Z" fill="#DE9D7D"/>
<path d="M138.006 236.371C138.006 236.371 141.988 248.415 142.719 249.679C142.719 249.679 145.639 249.066 147.508 247.549L143.137 234.55L138.006 236.371Z" fill="#495054"/>
<defs>
<linearGradient id="paint0_linear_2147_552" x1="33.5056" y1="257.758" x2="74.2275" y2="257.758" gradientUnits="userSpaceOnUse">
<stop stop-color="#3076A1"/>
<stop offset="1" stop-color="#639C38"/>
</linearGradient>
<linearGradient id="paint1_linear_2147_552" x1="63.379" y1="280.454" x2="100.204" y2="280.454" gradientUnits="userSpaceOnUse">
<stop stop-color="#3076A1"/>
<stop offset="1" stop-color="#639C38"/>
</linearGradient>
<linearGradient id="paint2_linear_2147_552" x1="66.5265" y1="285.803" x2="94.1665" y2="285.803" gradientUnits="userSpaceOnUse">
<stop stop-color="#3076A1"/>
<stop offset="1" stop-color="#639C38"/>
</linearGradient>
<linearGradient id="paint3_linear_2147_552" x1="56.5449" y1="263.587" x2="88.734" y2="263.587" gradientUnits="userSpaceOnUse">
<stop stop-color="#3076A1"/>
<stop offset="1" stop-color="#639C38"/>
</linearGradient>
<linearGradient id="paint4_linear_2147_552" x1="49.1579" y1="309.704" x2="78.8615" y2="309.704" gradientUnits="userSpaceOnUse">
<stop stop-color="#FF9340"/>
<stop offset="1" stop-color="#FFCE45"/>
</linearGradient>
<linearGradient id="paint5_linear_2147_552" x1="49.1586" y1="309.704" x2="78.8622" y2="309.704" gradientUnits="userSpaceOnUse">
<stop stop-color="#C97332"/>
<stop offset="1" stop-color="#FFCE45"/>
</linearGradient>
<linearGradient id="paint6_linear_2147_552" x1="151.452" y1="311.679" x2="309.781" y2="311.679" gradientUnits="userSpaceOnUse">
<stop stop-color="#FF9F55"/>
<stop offset="1" stop-color="#FFD255"/>
</linearGradient>
<linearGradient id="paint7_linear_2147_552" x1="78.0687" y1="331.262" x2="236.398" y2="331.262" gradientUnits="userSpaceOnUse">
<stop stop-color="#E37E30"/>
<stop offset="1" stop-color="#E8A12E"/>
</linearGradient>
<linearGradient id="paint8_linear_2147_552" x1="131.336" y1="180.415" x2="340.367" y2="180.415" gradientUnits="userSpaceOnUse">
<stop stop-color="#FF9F55"/>
<stop offset="1" stop-color="#FFD255"/>
</linearGradient>
<linearGradient id="paint9_linear_2147_552" x1="143.663" y1="171.613" x2="318.184" y2="171.613" gradientUnits="userSpaceOnUse">
<stop stop-color="#404B61"/>
<stop offset="0.486" stop-color="#3C4860"/>
<stop offset="1" stop-color="#2F3E5C"/>
</linearGradient>
<linearGradient id="paint10_linear_2147_552" x1="182.075" y1="280.967" x2="280.105" y2="280.967" gradientUnits="userSpaceOnUse">
<stop stop-color="#FF9F55"/>
<stop offset="1" stop-color="#FFD255"/>
</linearGradient>
</defs>
</svg>
