<svg width="73" height="73" viewBox="0 0 73 73" fill="none" xmlns="http://www.w3.org/2000/svg">
<circle cx="36.3462" cy="36.3462" r="35.3462" fill="white" fill-opacity="0.2" stroke="#E2E0FD" stroke-width="2"/>
<g clip-path="url(#clip0_2113_609)">
<path fill-rule="evenodd" clip-rule="evenodd" d="M37.3673 55.8701C42.5055 55.1306 47.0633 51.7854 49.701 47.561C49.4905 47.5293 49.28 47.469 49.0759 47.3833C48.4188 47.0977 47.9468 46.5645 47.7203 45.9424C47.529 45.4981 46.8592 44.9839 46.2053 44.4793C44.3491 43.051 42.5502 41.6609 42.9425 38.4395C43.0254 37.7698 43.2487 37.0811 43.5836 36.4527L41.1564 32.0125C41.0161 31.7554 40.9267 31.4856 40.8821 31.2127C40.8534 31.1555 40.8247 31.1016 40.8024 31.0444C40.1071 31.4285 39.3575 31.803 38.5155 32.0664C34.114 33.4439 31.1159 31.4729 34.5733 26.9502C36.9367 23.8589 31.7219 21.0596 27.1004 24.1826C23.3208 26.7312 20.058 32.3267 20.0006 38.4807C19.9209 47.3865 27.7638 57.2507 37.3673 55.8701ZM50.8205 44.4317C49.8254 41.8037 45.7875 41.2293 46.1734 38.0618C46.2755 37.2239 46.7858 36.3162 47.529 35.8242C47.8288 35.6275 48.1637 35.4942 48.5241 35.4624C48.6836 35.4497 48.8462 35.4497 49.0153 35.4719C51.1044 35.7385 52.0134 37.9126 52.0006 39.7979C51.9878 41.5371 51.3244 43.2732 50.8205 44.4317ZM48.2594 28.0833C46.6295 28.2197 45.1528 28.645 43.8419 29.3877L41.9282 18.9331C41.7369 18.1047 41.7241 17.4954 42.6554 17.0415C43.0159 16.9653 43.3252 16.9971 43.5772 17.1431C43.826 17.2859 44.0205 17.5366 44.1577 17.9016L48.2594 28.0833ZM48.8941 34.1294C48.2785 34.0691 47.2579 34.2532 46.6742 34.8054L44.1449 30.1812C45.5611 29.3814 47.025 28.8672 48.5751 28.8418C48.6899 31.054 48.5751 31.8887 48.8941 34.1294ZM25.0623 34.5801C25.8852 35.6116 27.3938 35.7861 28.4304 34.9641C29.467 34.1421 29.6424 32.6441 28.8163 31.6126C27.9934 30.5811 26.488 30.4065 25.4482 31.2285C24.4116 32.0442 24.2394 33.5454 25.0623 34.5801ZM39.6701 47.8784C40.5919 49.0337 42.2855 49.2273 43.4496 48.3101C44.617 47.3897 44.8115 45.7044 43.8898 44.5459C41.689 41.791 37.4694 45.1172 39.6701 47.8784ZM30.7109 50.5508C31.8367 51.9631 33.9003 52.198 35.3196 51.0776C36.739 49.9573 36.975 47.9038 35.8491 46.4915C34.7232 45.0791 32.6596 44.8443 31.2403 45.9646C29.821 47.085 29.585 49.1384 30.7109 50.5508ZM24.2936 43.416C25.2664 44.638 27.0557 44.8411 28.2837 43.8731C29.5116 42.905 29.7189 41.1277 28.743 39.9026C27.7702 38.6807 25.9809 38.4776 24.7529 39.4456C23.525 40.4168 23.3208 42.1941 24.2936 43.416Z" fill="url(#paint0_linear_2113_609)"/>
</g>
<defs>
<linearGradient id="paint0_linear_2113_609" x1="20" y1="36.5009" x2="52.0007" y2="36.5009" gradientUnits="userSpaceOnUse">
<stop stop-color="#5D3DAF"/>
<stop offset="1" stop-color="#5598F7"/>
</linearGradient>
<clipPath id="clip0_2113_609">
<rect width="32" height="39" fill="white" transform="translate(20 17)"/>
</clipPath>
</defs>
</svg>
