<svg width="73" height="73" viewBox="0 0 73 73" fill="none" xmlns="http://www.w3.org/2000/svg">
<circle cx="36.3462" cy="36.3462" r="35.3462" fill="white" fill-opacity="0.2" stroke="#E2E0FD" stroke-width="2"/>
<g clip-path="url(#clip0_2113_602)">
<path fill-rule="evenodd" clip-rule="evenodd" d="M23.9619 47.0888C25.599 47.0888 26.9237 48.4128 26.9237 50.0429C26.9237 51.6757 25.5963 52.997 23.9619 52.997C22.3248 52.997 21 51.673 21 50.0429C21 48.4128 22.3275 47.0888 23.9619 47.0888ZM34.9612 40.4421H25.2839V44.6637C25.2839 45.3915 24.6916 45.9823 23.9619 45.9823C23.2322 45.9823 22.6398 45.3915 22.6398 44.6637V39.5182C22.6398 39.4511 22.6452 39.3866 22.6533 39.3222C22.6425 39.2577 22.6398 39.1933 22.6398 39.1261C22.6398 38.3984 23.2322 37.8075 23.9619 37.8075H34.8885L34.8454 34.2626C34.5815 34.1847 34.3176 34.0988 34.0592 33.9887C33.8007 33.8786 33.5502 33.7631 33.3133 33.6234L32.4921 34.5258C32.3413 34.6816 32.1501 34.7621 31.9347 34.7702C31.7193 34.7782 31.5227 34.7111 31.3612 34.5688L30.1549 33.4408C29.9933 33.2824 29.9018 33.1025 29.8937 32.8849C29.8856 32.662 29.9583 32.4794 30.1091 32.3263L31.0111 31.3542C30.8738 31.1151 30.7445 30.8654 30.6395 30.6103C30.5318 30.3551 30.4403 30.0893 30.3622 29.818L29.1559 29.8664C28.9324 29.8744 28.7439 29.8019 28.5797 29.6515C28.4181 29.4931 28.3347 29.3105 28.3266 29.1037L28.262 27.4547C28.2539 27.2318 28.3212 27.0439 28.4693 26.88C28.6201 26.7189 28.8032 26.6357 29.0267 26.6276L30.3434 26.5766C30.4214 26.3053 30.5076 26.0422 30.618 25.7843C30.7284 25.5265 30.8442 25.2768 30.9842 25.0404L30.0929 24.2213C29.9314 24.071 29.8398 23.883 29.8318 23.6654C29.8237 23.4506 29.8964 23.2546 30.0472 23.0907L31.1565 21.8876C31.3154 21.7265 31.4958 21.6352 31.7139 21.6271C31.9374 21.6191 32.1205 21.6943 32.274 21.842L33.2648 22.7389C33.491 22.6047 33.7307 22.4757 33.9891 22.3683C34.2449 22.2609 34.5115 22.1696 34.7835 22.0917L34.735 20.8886C34.7269 20.6657 34.7996 20.4777 34.9504 20.3139C35.1093 20.1527 35.2924 20.0695 35.4997 20.0614L37.153 19.9997C37.3764 19.9916 37.5649 20.0588 37.7292 20.2065C37.8907 20.3568 37.9742 20.5395 37.9823 20.7624L38.0334 22.0756C38.2973 22.1535 38.5612 22.2394 38.8197 22.3495C39.0782 22.4516 39.3286 22.5751 39.5655 22.7148L40.3868 21.8285C40.5376 21.6674 40.726 21.5761 40.9442 21.568C41.1596 21.56 41.3561 21.6325 41.5204 21.7829L41.5365 21.7963L42.7428 22.9027C42.9044 23.0612 42.9959 23.2411 43.004 23.4587C43.0121 23.6816 42.9367 23.8642 42.7886 24.0172L41.8893 25.0055C42.0239 25.2392 42.1531 25.4782 42.2608 25.7414C42.3685 26.0046 42.4601 26.2624 42.5382 26.5255L43.7445 26.4772C43.968 26.4692 44.1564 26.5417 44.3207 26.6921C44.4822 26.8505 44.5657 27.0331 44.5738 27.2399L44.6384 28.8888C44.6465 29.1117 44.5792 29.2997 44.4311 29.4635C44.2803 29.6247 44.0972 29.7079 43.8737 29.716L42.557 29.767C42.4789 30.0302 42.3928 30.2934 42.2824 30.5512C42.172 30.809 42.0562 31.0588 41.9162 31.2951L42.8209 32.1142C42.9771 32.2646 43.0578 32.4552 43.0659 32.6701C43.074 32.8849 43.0067 33.0729 42.864 33.2421L41.7331 34.4479C41.5904 34.609 41.4073 34.6977 41.1838 34.7084C40.9603 34.7165 40.7718 34.644 40.6157 34.4936L39.6409 33.5939C39.4013 33.7309 39.1509 33.8598 38.8951 33.9645C38.6393 34.0719 38.3727 34.1632 38.1008 34.2411L38.1411 37.8022H49.0408C49.7705 37.8022 50.3629 38.393 50.3629 39.1208C50.3629 39.1879 50.3575 39.2524 50.3494 39.3168C50.3602 39.3813 50.3629 39.4457 50.3629 39.5129V44.6584C50.3629 45.3861 49.7705 45.977 49.0408 45.977C48.3111 45.977 47.7188 45.3861 47.7188 44.6584V40.4421H38.1331V44.2421C38.1331 45.1149 37.4222 45.8239 36.5471 45.8239C35.672 45.8239 34.9612 45.1149 34.9612 44.2421V40.4421ZM36.3129 24.9276C36.7598 24.9088 37.1799 24.976 37.5892 25.1291C37.9904 25.2848 38.3431 25.4997 38.6527 25.779C38.9543 26.0583 39.1993 26.3966 39.3851 26.7834C39.5736 27.1781 39.6705 27.589 39.6894 28.0348C39.7082 28.4806 39.6409 28.8996 39.4875 29.3078C39.3313 29.7079 39.1132 30.0597 38.8358 30.3686C38.5558 30.6693 38.2165 30.9137 37.8288 31.099C37.4411 31.2843 37.021 31.3837 36.574 31.4025C36.1271 31.4213 35.707 31.3542 35.2978 31.2011C34.8966 31.0453 34.5438 30.8305 34.2342 30.5512C33.9326 30.2719 33.6876 29.9335 33.5018 29.5468C33.316 29.1601 33.2164 28.7411 33.1975 28.2953C33.1787 27.8495 33.246 27.4306 33.3995 27.0224C33.5556 26.6222 33.7737 26.2704 34.0511 25.9616C34.3311 25.6608 34.6704 25.4164 35.0581 25.2311C35.4512 25.0431 35.8659 24.9464 36.3129 24.9276ZM49.0381 47.0888C50.6752 47.0888 52 48.4128 52 50.0429C52 51.6757 50.6725 52.997 49.0381 52.997C47.401 52.997 46.0763 51.673 46.0763 50.0429C46.0736 48.4128 47.401 47.0888 49.0381 47.0888ZM36.4475 47.0888C38.0846 47.0888 39.4094 48.4128 39.4094 50.0429C39.4094 51.6757 38.0819 52.997 36.4475 52.997C34.8104 52.997 33.4856 51.673 33.4856 50.0429C33.4856 48.4128 34.8104 47.0888 36.4475 47.0888Z" fill="url(#paint0_linear_2113_602)"/>
</g>
<defs>
<linearGradient id="paint0_linear_2113_602" x1="21" y1="36.498" x2="52" y2="36.498" gradientUnits="userSpaceOnUse">
<stop stop-color="#5D3DAF"/>
<stop offset="1" stop-color="#5598F7"/>
</linearGradient>
<clipPath id="clip0_2113_602">
<rect width="31" height="33" fill="white" transform="translate(21 20)"/>
</clipPath>
</defs>
</svg>
