<svg width="419" height="214" viewBox="0 0 419 214" fill="none" xmlns="http://www.w3.org/2000/svg">
<g filter="url(#filter0_d_2096_505)">
<rect x="44" y="40" width="331" height="126" rx="36" fill="url(#paint0_linear_2096_505)"/>
</g>
<path d="M94.6537 64.14H100.414L104.059 74.715L107.749 64.14H113.464L107.974 78.675L112.024 88.845L121.069 64.05H127.819L115.039 96H109.684L104.059 82.59L98.4787 96H93.1237L80.3887 64.05H87.0487L96.1387 88.845L100.099 78.675L94.6537 64.14ZM138.278 96.45C136.388 96.45 134.678 96.135 133.148 95.505C131.618 94.845 130.313 93.96 129.233 92.85C128.153 91.71 127.313 90.42 126.713 88.98C126.143 87.51 125.858 85.965 125.858 84.345C125.858 82.095 126.353 80.04 127.343 78.18C128.363 76.32 129.803 74.835 131.663 73.725C133.553 72.585 135.773 72.015 138.323 72.015C140.903 72.015 143.108 72.585 144.938 73.725C146.768 74.835 148.163 76.32 149.123 78.18C150.113 80.01 150.608 81.99 150.608 84.12C150.608 84.48 150.593 84.855 150.563 85.245C150.533 85.605 150.503 85.905 150.473 86.145H132.248C132.368 87.345 132.713 88.395 133.283 89.295C133.883 90.195 134.633 90.885 135.533 91.365C136.463 91.815 137.453 92.04 138.503 92.04C139.703 92.04 140.828 91.755 141.878 91.185C142.958 90.585 143.693 89.805 144.083 88.845L149.258 90.285C148.688 91.485 147.863 92.55 146.783 93.48C145.733 94.41 144.488 95.145 143.048 95.685C141.608 96.195 140.018 96.45 138.278 96.45ZM132.113 82.32H144.443C144.323 81.12 143.978 80.085 143.408 79.215C142.868 78.315 142.148 77.625 141.248 77.145C140.348 76.635 139.343 76.38 138.233 76.38C137.153 76.38 136.163 76.635 135.263 77.145C134.393 77.625 133.673 78.315 133.103 79.215C132.563 80.085 132.233 81.12 132.113 82.32ZM163.652 84.21C163.652 81.93 164.102 79.875 165.002 78.045C165.902 76.185 167.147 74.715 168.737 73.635C170.327 72.555 172.142 72.015 174.182 72.015C175.922 72.015 177.482 72.45 178.862 73.32C180.272 74.16 181.367 75.24 182.147 76.56V63.15H188.177V89.25C188.177 89.88 188.282 90.33 188.492 90.6C188.702 90.87 189.062 91.035 189.572 91.095V96C188.522 96.21 187.667 96.315 187.007 96.315C185.927 96.315 185.027 96.045 184.307 95.505C183.617 94.965 183.227 94.26 183.137 93.39L183.047 91.905C182.177 93.375 180.992 94.5 179.492 95.28C178.022 96.06 176.477 96.45 174.857 96.45C173.237 96.45 171.737 96.135 170.357 95.505C169.007 94.875 167.822 94.005 166.802 92.895C165.812 91.785 165.032 90.495 164.462 89.025C163.922 87.525 163.652 85.92 163.652 84.21ZM182.147 87.36V81.735C181.847 80.865 181.367 80.085 180.707 79.395C180.047 78.705 179.312 78.165 178.502 77.775C177.692 77.355 176.882 77.145 176.072 77.145C175.142 77.145 174.302 77.34 173.552 77.73C172.802 78.12 172.142 78.645 171.572 79.305C171.032 79.965 170.612 80.73 170.312 81.6C170.042 82.47 169.907 83.385 169.907 84.345C169.907 85.305 170.057 86.22 170.357 87.09C170.687 87.93 171.152 88.665 171.752 89.295C172.352 89.925 173.042 90.42 173.822 90.78C174.632 91.14 175.502 91.32 176.432 91.32C177.002 91.32 177.572 91.23 178.142 91.05C178.742 90.84 179.297 90.57 179.807 90.24C180.347 89.88 180.812 89.46 181.202 88.98C181.622 88.47 181.937 87.93 182.147 87.36ZM205.031 96.45C203.141 96.45 201.431 96.135 199.901 95.505C198.371 94.845 197.066 93.96 195.986 92.85C194.906 91.71 194.066 90.42 193.466 88.98C192.896 87.51 192.611 85.965 192.611 84.345C192.611 82.095 193.106 80.04 194.096 78.18C195.116 76.32 196.556 74.835 198.416 73.725C200.306 72.585 202.526 72.015 205.076 72.015C207.656 72.015 209.861 72.585 211.691 73.725C213.521 74.835 214.916 76.32 215.876 78.18C216.866 80.01 217.361 81.99 217.361 84.12C217.361 84.48 217.346 84.855 217.316 85.245C217.286 85.605 217.256 85.905 217.226 86.145H199.001C199.121 87.345 199.466 88.395 200.036 89.295C200.636 90.195 201.386 90.885 202.286 91.365C203.216 91.815 204.206 92.04 205.256 92.04C206.456 92.04 207.581 91.755 208.631 91.185C209.711 90.585 210.446 89.805 210.836 88.845L216.011 90.285C215.441 91.485 214.616 92.55 213.536 93.48C212.486 94.41 211.241 95.145 209.801 95.685C208.361 96.195 206.771 96.45 205.031 96.45ZM198.866 82.32H211.196C211.076 81.12 210.731 80.085 210.161 79.215C209.621 78.315 208.901 77.625 208.001 77.145C207.101 76.635 206.096 76.38 204.986 76.38C203.906 76.38 202.916 76.635 202.016 77.145C201.146 77.625 200.426 78.315 199.856 79.215C199.316 80.085 198.986 81.12 198.866 82.32ZM226.72 96L218.035 72.42H224.29L230.23 90.51L236.215 72.42H241.93L233.29 96H226.72ZM255.26 96.45C253.37 96.45 251.66 96.135 250.13 95.505C248.6 94.845 247.295 93.96 246.215 92.85C245.135 91.71 244.295 90.42 243.695 88.98C243.125 87.51 242.84 85.965 242.84 84.345C242.84 82.095 243.335 80.04 244.325 78.18C245.345 76.32 246.785 74.835 248.645 73.725C250.535 72.585 252.755 72.015 255.305 72.015C257.885 72.015 260.09 72.585 261.92 73.725C263.75 74.835 265.145 76.32 266.105 78.18C267.095 80.01 267.59 81.99 267.59 84.12C267.59 84.48 267.575 84.855 267.545 85.245C267.515 85.605 267.485 85.905 267.455 86.145H249.23C249.35 87.345 249.695 88.395 250.265 89.295C250.865 90.195 251.615 90.885 252.515 91.365C253.445 91.815 254.435 92.04 255.485 92.04C256.685 92.04 257.81 91.755 258.86 91.185C259.94 90.585 260.675 89.805 261.065 88.845L266.24 90.285C265.67 91.485 264.845 92.55 263.765 93.48C262.715 94.41 261.47 95.145 260.03 95.685C258.59 96.195 257 96.45 255.26 96.45ZM249.095 82.32H261.425C261.305 81.12 260.96 80.085 260.39 79.215C259.85 78.315 259.13 77.625 258.23 77.145C257.33 76.635 256.325 76.38 255.215 76.38C254.135 76.38 253.145 76.635 252.245 77.145C251.375 77.625 250.655 78.315 250.085 79.215C249.545 80.085 249.215 81.12 249.095 82.32ZM271.219 63.15H277.249V88.44C277.249 89.52 277.429 90.255 277.789 90.645C278.149 91.005 278.644 91.185 279.274 91.185C279.754 91.185 280.249 91.125 280.759 91.005C281.269 90.885 281.719 90.735 282.109 90.555L282.919 95.145C282.109 95.535 281.164 95.835 280.084 96.045C279.004 96.255 278.029 96.36 277.159 96.36C275.269 96.36 273.799 95.865 272.749 94.875C271.729 93.855 271.219 92.415 271.219 90.555V63.15ZM296.436 96.45C294.516 96.45 292.791 96.135 291.261 95.505C289.731 94.845 288.426 93.945 287.346 92.805C286.296 91.665 285.486 90.36 284.916 88.89C284.346 87.42 284.061 85.875 284.061 84.255C284.061 82.605 284.346 81.045 284.916 79.575C285.486 78.105 286.296 76.8 287.346 75.66C288.426 74.52 289.731 73.635 291.261 73.005C292.791 72.345 294.516 72.015 296.436 72.015C298.356 72.015 300.066 72.345 301.566 73.005C303.096 73.635 304.401 74.52 305.481 75.66C306.561 76.8 307.371 78.105 307.911 79.575C308.481 81.045 308.766 82.605 308.766 84.255C308.766 85.875 308.481 87.42 307.911 88.89C307.371 90.36 306.561 91.665 305.481 92.805C304.431 93.945 303.141 94.845 301.611 95.505C300.081 96.135 298.356 96.45 296.436 96.45ZM290.271 84.255C290.271 85.635 290.541 86.865 291.081 87.945C291.621 88.995 292.356 89.82 293.286 90.42C294.216 91.02 295.266 91.32 296.436 91.32C297.576 91.32 298.611 91.02 299.541 90.42C300.471 89.79 301.206 88.95 301.746 87.9C302.316 86.82 302.601 85.59 302.601 84.21C302.601 82.86 302.316 81.645 301.746 80.565C301.206 79.485 300.471 78.645 299.541 78.045C298.611 77.445 297.576 77.145 296.436 77.145C295.266 77.145 294.216 77.46 293.286 78.09C292.356 78.69 291.621 79.53 291.081 80.61C290.541 81.66 290.271 82.875 290.271 84.255ZM326.966 96.45C325.136 96.45 323.516 96.045 322.106 95.235C320.726 94.395 319.646 93.27 318.866 91.86V105.585H312.836V72.42H318.101V76.47C319.001 75.09 320.141 74.01 321.521 73.23C322.901 72.42 324.476 72.015 326.246 72.015C327.836 72.015 329.291 72.33 330.611 72.96C331.961 73.59 333.131 74.475 334.121 75.615C335.111 76.725 335.876 78.015 336.416 79.485C336.986 80.925 337.271 82.485 337.271 84.165C337.271 86.445 336.821 88.515 335.921 90.375C335.051 92.235 333.836 93.72 332.276 94.83C330.746 95.91 328.976 96.45 326.966 96.45ZM324.941 91.32C325.871 91.32 326.711 91.125 327.461 90.735C328.211 90.345 328.856 89.82 329.396 89.16C329.966 88.47 330.386 87.705 330.656 86.865C330.956 85.995 331.106 85.095 331.106 84.165C331.106 83.175 330.941 82.26 330.611 81.42C330.311 80.58 329.861 79.845 329.261 79.215C328.661 78.555 327.956 78.045 327.146 77.685C326.366 77.325 325.511 77.145 324.581 77.145C324.011 77.145 323.426 77.25 322.826 77.46C322.256 77.64 321.701 77.91 321.161 78.27C320.621 78.63 320.141 79.05 319.721 79.53C319.331 80.01 319.046 80.535 318.866 81.105V86.64C319.226 87.51 319.706 88.305 320.306 89.025C320.936 89.745 321.656 90.315 322.466 90.735C323.276 91.125 324.101 91.32 324.941 91.32ZM116.723 127.14C116.723 125.62 117.023 124.25 117.623 123.03C118.223 121.79 119.053 120.81 120.113 120.09C121.173 119.37 122.383 119.01 123.743 119.01C124.903 119.01 125.943 119.3 126.863 119.88C127.803 120.44 128.533 121.16 129.053 122.04V113.1H133.073V130.5C133.073 130.92 133.143 131.22 133.283 131.4C133.423 131.58 133.663 131.69 134.003 131.73V135C133.303 135.14 132.733 135.21 132.293 135.21C131.573 135.21 130.973 135.03 130.493 134.67C130.033 134.31 129.773 133.84 129.713 133.26L129.653 132.27C129.073 133.25 128.283 134 127.283 134.52C126.303 135.04 125.273 135.3 124.193 135.3C123.113 135.3 122.113 135.09 121.193 134.67C120.293 134.25 119.503 133.67 118.823 132.93C118.163 132.19 117.643 131.33 117.263 130.35C116.903 129.35 116.723 128.28 116.723 127.14ZM129.053 129.24V125.49C128.853 124.91 128.533 124.39 128.093 123.93C127.653 123.47 127.163 123.11 126.623 122.85C126.083 122.57 125.543 122.43 125.003 122.43C124.383 122.43 123.823 122.56 123.323 122.82C122.823 123.08 122.383 123.43 122.003 123.87C121.643 124.31 121.363 124.82 121.163 125.4C120.983 125.98 120.893 126.59 120.893 127.23C120.893 127.87 120.993 128.48 121.193 129.06C121.413 129.62 121.723 130.11 122.123 130.53C122.523 130.95 122.983 131.28 123.503 131.52C124.043 131.76 124.623 131.88 125.243 131.88C125.623 131.88 126.003 131.82 126.383 131.7C126.783 131.56 127.153 131.38 127.493 131.16C127.853 130.92 128.163 130.64 128.423 130.32C128.703 129.98 128.913 129.62 129.053 129.24ZM137.018 135V119.28H141.038V135H137.018ZM137.018 117.09V113.1H141.038V117.09H137.018ZM150.815 135.09C149.775 135.09 148.815 134.89 147.935 134.49C147.075 134.07 146.325 133.49 145.685 132.75C145.065 132.01 144.585 131.16 144.245 130.2C143.905 129.24 143.735 128.22 143.735 127.14C143.735 126 143.915 124.94 144.275 123.96C144.635 122.98 145.135 122.12 145.775 121.38C146.435 120.62 147.205 120.04 148.085 119.64C148.985 119.22 149.975 119.01 151.055 119.01C152.275 119.01 153.345 119.29 154.265 119.85C155.185 120.39 155.945 121.12 156.545 122.04V119.28H160.055V134.25C160.055 135.81 159.675 137.14 158.915 138.24C158.175 139.36 157.145 140.21 155.825 140.79C154.505 141.39 153.005 141.69 151.325 141.69C149.625 141.69 148.185 141.4 147.005 140.82C145.825 140.26 144.815 139.46 143.975 138.42L146.165 136.29C146.765 137.03 147.515 137.61 148.415 138.03C149.335 138.45 150.305 138.66 151.325 138.66C152.185 138.66 152.965 138.5 153.665 138.18C154.385 137.88 154.955 137.4 155.375 136.74C155.815 136.1 156.035 135.27 156.035 134.25V132.27C155.515 133.17 154.775 133.87 153.815 134.37C152.875 134.85 151.875 135.09 150.815 135.09ZM152.165 131.88C152.605 131.88 153.025 131.81 153.425 131.67C153.825 131.53 154.195 131.34 154.535 131.1C154.875 130.86 155.175 130.58 155.435 130.26C155.695 129.92 155.895 129.58 156.035 129.24V125.49C155.795 124.87 155.455 124.33 155.015 123.87C154.595 123.41 154.115 123.06 153.575 122.82C153.055 122.56 152.505 122.43 151.925 122.43C151.305 122.43 150.745 122.56 150.245 122.82C149.745 123.08 149.315 123.45 148.955 123.93C148.595 124.39 148.315 124.91 148.115 125.49C147.935 126.05 147.845 126.64 147.845 127.26C147.845 127.9 147.955 128.5 148.175 129.06C148.395 129.62 148.695 130.11 149.075 130.53C149.475 130.95 149.935 131.28 150.455 131.52C150.995 131.76 151.565 131.88 152.165 131.88ZM163.679 135V119.28H167.699V135H163.679ZM163.679 117.09V113.1H167.699V117.09H163.679ZM180.745 134.19C180.405 134.33 179.995 134.49 179.515 134.67C179.035 134.85 178.515 134.99 177.955 135.09C177.415 135.21 176.865 135.27 176.305 135.27C175.565 135.27 174.885 135.14 174.265 134.88C173.645 134.62 173.145 134.21 172.765 133.65C172.405 133.07 172.225 132.32 172.225 131.4V122.37H170.155V119.28H172.225V114.18H176.245V119.28H179.545V122.37H176.245V130.05C176.265 130.59 176.415 130.98 176.695 131.22C176.975 131.46 177.325 131.58 177.745 131.58C178.165 131.58 178.575 131.51 178.975 131.37C179.375 131.23 179.695 131.11 179.935 131.01L180.745 134.19ZM181.759 130.35C181.759 129.33 182.039 128.44 182.599 127.68C183.179 126.9 183.979 126.3 184.999 125.88C186.019 125.46 187.189 125.25 188.509 125.25C189.169 125.25 189.839 125.3 190.519 125.4C191.199 125.5 191.789 125.66 192.289 125.88V125.04C192.289 124.04 191.989 123.27 191.389 122.73C190.809 122.19 189.939 121.92 188.779 121.92C187.919 121.92 187.099 122.07 186.319 122.37C185.539 122.67 184.719 123.11 183.859 123.69L182.569 121.05C183.609 120.37 184.669 119.86 185.749 119.52C186.849 119.18 187.999 119.01 189.199 119.01C191.439 119.01 193.179 119.57 194.419 120.69C195.679 121.81 196.309 123.41 196.309 125.49V130.5C196.309 130.92 196.379 131.22 196.519 131.4C196.679 131.58 196.929 131.69 197.269 131.73V135C196.909 135.06 196.579 135.11 196.279 135.15C195.999 135.19 195.759 135.21 195.559 135.21C194.759 135.21 194.149 135.03 193.729 134.67C193.329 134.31 193.079 133.87 192.979 133.35L192.889 132.54C192.209 133.42 191.359 134.1 190.339 134.58C189.319 135.06 188.279 135.3 187.219 135.3C186.179 135.3 185.239 135.09 184.399 134.67C183.579 134.23 182.929 133.64 182.449 132.9C181.989 132.14 181.759 131.29 181.759 130.35ZM191.539 131.16C191.759 130.92 191.939 130.68 192.079 130.44C192.219 130.2 192.289 129.98 192.289 129.78V128.19C191.809 127.99 191.289 127.84 190.729 127.74C190.169 127.62 189.639 127.56 189.139 127.56C188.099 127.56 187.239 127.79 186.559 128.25C185.899 128.69 185.569 129.28 185.569 130.02C185.569 130.42 185.679 130.8 185.899 131.16C186.119 131.52 186.439 131.81 186.859 132.03C187.279 132.25 187.779 132.36 188.359 132.36C188.959 132.36 189.549 132.25 190.129 132.03C190.709 131.79 191.179 131.5 191.539 131.16ZM200.035 113.1H204.055V129.96C204.055 130.68 204.175 131.17 204.415 131.43C204.655 131.67 204.985 131.79 205.405 131.79C205.725 131.79 206.055 131.75 206.395 131.67C206.735 131.59 207.035 131.49 207.295 131.37L207.835 134.43C207.295 134.69 206.665 134.89 205.945 135.03C205.225 135.17 204.575 135.24 203.995 135.24C202.735 135.24 201.755 134.91 201.055 134.25C200.375 133.57 200.035 132.61 200.035 131.37V113.1ZM216.934 135V123.18H214.864V120.12H216.934V119.16C216.934 117.86 217.144 116.74 217.564 115.8C218.004 114.84 218.614 114.1 219.394 113.58C220.194 113.06 221.124 112.8 222.184 112.8C222.824 112.8 223.464 112.88 224.104 113.04C224.764 113.2 225.414 113.43 226.054 113.73L225.244 116.76C224.944 116.6 224.594 116.47 224.194 116.37C223.794 116.25 223.414 116.19 223.054 116.19C222.374 116.19 221.854 116.43 221.494 116.91C221.134 117.39 220.954 118.09 220.954 119.01V120.12H224.794V123.18H220.954V135H216.934ZM226.927 129.12V119.28H230.947V128.25C230.947 129.45 231.167 130.36 231.607 130.98C232.047 131.58 232.697 131.88 233.557 131.88C234.077 131.88 234.587 131.78 235.087 131.58C235.607 131.36 236.077 131.04 236.497 130.62C236.937 130.2 237.307 129.67 237.607 129.03V119.28H241.627V130.5C241.627 130.92 241.697 131.22 241.837 131.4C241.997 131.58 242.247 131.69 242.587 131.73V135C242.187 135.06 241.847 135.1 241.567 135.12C241.307 135.16 241.067 135.18 240.847 135.18C240.127 135.18 239.537 135.02 239.077 134.7C238.637 134.36 238.377 133.9 238.297 133.32L238.207 132.06C237.507 133.12 236.607 133.93 235.507 134.49C234.407 135.03 233.197 135.3 231.877 135.3C230.257 135.3 229.027 134.78 228.187 133.74C227.347 132.68 226.927 131.14 226.927 129.12ZM254.983 134.19C254.643 134.33 254.233 134.49 253.753 134.67C253.273 134.85 252.753 134.99 252.193 135.09C251.653 135.21 251.103 135.27 250.543 135.27C249.803 135.27 249.123 135.14 248.503 134.88C247.883 134.62 247.383 134.21 247.003 133.65C246.643 133.07 246.463 132.32 246.463 131.4V122.37H244.393V119.28H246.463V114.18H250.483V119.28H253.783V122.37H250.483V130.05C250.503 130.59 250.653 130.98 250.933 131.22C251.213 131.46 251.563 131.58 251.983 131.58C252.403 131.58 252.813 131.51 253.213 131.37C253.613 131.23 253.933 131.11 254.173 131.01L254.983 134.19ZM256.927 129.12V119.28H260.947V128.25C260.947 129.45 261.167 130.36 261.607 130.98C262.047 131.58 262.697 131.88 263.557 131.88C264.077 131.88 264.587 131.78 265.087 131.58C265.607 131.36 266.077 131.04 266.497 130.62C266.937 130.2 267.307 129.67 267.607 129.03V119.28H271.627V130.5C271.627 130.92 271.697 131.22 271.837 131.4C271.997 131.58 272.247 131.69 272.587 131.73V135C272.187 135.06 271.847 135.1 271.567 135.12C271.307 135.16 271.067 135.18 270.847 135.18C270.127 135.18 269.537 135.02 269.077 134.7C268.637 134.36 268.377 133.9 268.297 133.32L268.207 132.06C267.507 133.12 266.607 133.93 265.507 134.49C264.407 135.03 263.197 135.3 261.877 135.3C260.257 135.3 259.027 134.78 258.187 133.74C257.347 132.68 256.927 131.14 256.927 129.12ZM284.982 122.76C283.762 122.76 282.672 123 281.712 123.48C280.752 123.94 280.062 124.61 279.642 125.49V135H275.622V119.28H279.312V122.64C279.872 121.56 280.582 120.71 281.442 120.09C282.302 119.47 283.212 119.13 284.172 119.07C284.392 119.07 284.562 119.07 284.682 119.07C284.802 119.07 284.902 119.08 284.982 119.1V122.76ZM294.308 135.3C293.048 135.3 291.908 135.09 290.888 134.67C289.868 134.23 288.998 133.64 288.278 132.9C287.558 132.14 286.998 131.28 286.598 130.32C286.218 129.34 286.028 128.31 286.028 127.23C286.028 125.73 286.358 124.36 287.018 123.12C287.698 121.88 288.658 120.89 289.898 120.15C291.158 119.39 292.638 119.01 294.338 119.01C296.058 119.01 297.528 119.39 298.748 120.15C299.968 120.89 300.898 121.88 301.538 123.12C302.198 124.34 302.528 125.66 302.528 127.08C302.528 127.32 302.518 127.57 302.498 127.83C302.478 128.07 302.458 128.27 302.438 128.43H290.288C290.368 129.23 290.598 129.93 290.978 130.53C291.378 131.13 291.878 131.59 292.478 131.91C293.098 132.21 293.758 132.36 294.458 132.36C295.258 132.36 296.008 132.17 296.708 131.79C297.428 131.39 297.918 130.87 298.178 130.23L301.628 131.19C301.248 131.99 300.698 132.7 299.978 133.32C299.278 133.94 298.448 134.43 297.488 134.79C296.528 135.13 295.468 135.3 294.308 135.3ZM290.198 125.88H298.418C298.338 125.08 298.108 124.39 297.728 123.81C297.368 123.21 296.888 122.75 296.288 122.43C295.688 122.09 295.018 121.92 294.278 121.92C293.558 121.92 292.898 122.09 292.298 122.43C291.718 122.75 291.238 123.21 290.858 123.81C290.498 124.39 290.278 125.08 290.198 125.88Z" fill="white"/>
<defs>
<filter id="filter0_d_2096_505" x="0" y="0" width="419" height="214" filterUnits="userSpaceOnUse" color-interpolation-filters="sRGB">
<feFlood flood-opacity="0" result="BackgroundImageFix"/>
<feColorMatrix in="SourceAlpha" type="matrix" values="0 0 0 0 0 0 0 0 0 0 0 0 0 0 0 0 0 0 127 0" result="hardAlpha"/>
<feOffset dy="4"/>
<feGaussianBlur stdDeviation="22"/>
<feComposite in2="hardAlpha" operator="out"/>
<feColorMatrix type="matrix" values="0 0 0 0 0 0 0 0 0 0 0 0 0 0 0 0 0 0 0.1 0"/>
<feBlend mode="normal" in2="BackgroundImageFix" result="effect1_dropShadow_2096_505"/>
<feBlend mode="normal" in="SourceGraphic" in2="effect1_dropShadow_2096_505" result="shape"/>
</filter>
<linearGradient id="paint0_linear_2096_505" x1="44" y1="103" x2="375" y2="103" gradientUnits="userSpaceOnUse">
<stop stop-color="#5D3DAF"/>
<stop offset="1" stop-color="#5598F7"/>
</linearGradient>
</defs>
</svg>
