<svg width="73" height="73" viewBox="0 0 73 73" fill="none" xmlns="http://www.w3.org/2000/svg">
<circle cx="36.3462" cy="36.3462" r="35.3462" fill="white" fill-opacity="0.2" stroke="#E2E0FD" stroke-width="2"/>
<g clip-path="url(#clip0_2113_623)">
<path fill-rule="evenodd" clip-rule="evenodd" d="M24.2553 45.6598C23.6555 46.3145 22.964 46.881 22.2019 47.3419C22.1534 47.3756 22.0957 47.3936 22.0364 47.3936C21.9772 47.3936 21.9194 47.3756 21.871 47.3419C20.7832 46.6664 19.8165 45.8169 19.0105 44.8279C18.026 43.6443 17.3639 42.2315 17.087 40.7236C16.8312 39.4029 17.0767 38.0352 17.7766 36.8823C18.0679 36.4369 18.4327 36.043 18.8558 35.7171C19.7662 34.961 20.9113 34.5367 22.0998 34.5151C23.2531 34.5324 24.3573 34.9791 25.1923 35.766C25.5156 36.0552 25.7938 36.3902 26.018 36.76C26.7756 37.9833 26.9457 39.5645 26.6055 41.1609C26.2385 42.8353 25.4273 44.3828 24.2553 45.6445V45.6598ZM22.0689 48.9414C22.6803 48.9408 23.2778 49.1214 23.7844 49.4599C24.291 49.7985 24.6834 50.2794 24.9109 50.8406C24.9664 50.8361 25.0223 50.8361 25.0779 50.8406H27.5333C27.8329 50.8771 28.1087 51.0207 28.3086 51.2444C28.5086 51.468 28.619 51.7562 28.619 52.0548C28.619 52.3534 28.5086 52.6416 28.3086 52.8652C28.1087 53.0889 27.8329 53.2325 27.5333 53.269H25.0779C25.0021 53.2697 24.9264 53.2625 24.8521 53.2476C24.6243 53.7427 24.2658 54.1681 23.8142 54.4788C23.3627 54.7896 22.8349 54.9743 22.2862 55.0135C21.7376 55.0528 21.1883 54.9451 20.6963 54.7018C20.2043 54.4585 19.7876 54.0886 19.4902 53.6309C19.1927 53.1733 19.0254 52.6449 19.0059 52.1012C18.9863 51.5575 19.1153 51.0186 19.3792 50.5413C19.643 50.0639 20.0321 49.6657 20.5054 49.3885C20.9787 49.1112 21.5188 48.9653 22.0689 48.9659V48.9414ZM50.2349 32.2519C50.7876 32.2517 51.33 32.3992 51.8047 32.679C52.2795 32.9587 52.669 33.3602 52.9319 33.8409C53.1948 34.3216 53.3214 34.8637 53.2982 35.4098C53.275 35.9558 53.103 36.4856 52.8003 36.9428C52.4976 37.4001 52.0756 37.7679 51.5788 38.0073C51.082 38.2467 50.529 38.3489 49.9783 38.3028C49.4276 38.2568 48.8998 38.0644 48.4506 37.746C48.0015 37.4275 47.6478 36.9949 47.427 36.4939H43.5954C43.4207 36.5169 43.2431 36.5027 43.0744 36.4523C42.9057 36.4019 42.7498 36.3164 42.6172 36.2016C42.4847 36.0868 42.3784 35.9453 42.3056 35.7865C42.2328 35.6278 42.1952 35.4555 42.1952 35.2812C42.1952 35.107 42.2328 34.9347 42.3056 34.7759C42.3784 34.6172 42.4847 34.4757 42.6172 34.3609C42.7498 34.2461 42.9057 34.1606 43.0744 34.1102C43.2431 34.0598 43.4207 34.0456 43.5954 34.0686H47.427C47.6654 33.5283 48.0581 33.0687 48.5569 32.746C49.0557 32.4232 49.6389 32.2516 50.2349 32.2519ZM40.7164 42.4485C40.5425 42.4273 40.366 42.4429 40.1987 42.4943C40.0313 42.5456 39.8769 42.6315 39.7457 42.7463C39.6144 42.8611 39.5093 43.0021 39.4374 43.1601C39.3654 43.3181 39.3282 43.4894 39.3282 43.6627C39.3282 43.8359 39.3654 44.0072 39.4374 44.1652C39.5093 44.3232 39.6144 44.4643 39.7457 44.5791C39.8769 44.6938 40.0313 44.7798 40.1987 44.8311C40.366 44.8824 40.5425 44.898 40.7164 44.8768H43.6697C43.8435 44.898 44.02 44.8824 44.1873 44.8311C44.3547 44.7798 44.5091 44.6938 44.6403 44.5791C44.7716 44.4643 44.8767 44.3232 44.9486 44.1652C45.0206 44.0072 45.0578 43.8359 45.0578 43.6627C45.0578 43.4894 45.0206 43.3181 44.9486 43.1601C44.8767 43.0021 44.7716 42.8611 44.6403 42.7463C44.5091 42.6315 44.3547 42.5456 44.1873 42.4943C44.02 42.4429 43.8435 42.4273 43.6697 42.4485H40.7164ZM38.8392 36.5214C39.1313 36.446 39.3853 36.2676 39.5536 36.0198C39.7219 35.772 39.7927 35.4719 39.7528 35.176C39.7129 34.8801 39.565 34.6089 39.3369 34.4134C39.1088 34.2179 38.8163 34.1116 38.5145 34.1145C37.46 34.2527 36.4697 34.694 35.6664 35.3837C35.4673 35.5636 35.3331 35.8029 35.2842 36.0651C35.2353 36.3274 35.2744 36.5983 35.3956 36.8366C35.5167 37.0748 35.7133 37.2674 35.9553 37.385C36.1974 37.5025 36.4717 37.5387 36.7364 37.4878C36.935 37.4421 37.1195 37.3498 37.2745 37.2187C37.7158 36.8398 38.2599 36.5973 38.8392 36.5214ZM36.3653 40.3474C36.2508 40.0605 36.0309 39.827 35.7497 39.6936C35.4685 39.5602 35.1467 39.5368 34.8488 39.6281C34.5509 39.7193 34.2988 39.9185 34.1431 40.1857C33.9873 40.453 33.9394 40.7685 34.0088 41.0692L34.0645 41.2343C34.3939 42.171 34.9768 43.0004 35.7499 43.6321C36.0043 43.7931 36.3096 43.8565 36.608 43.8103C36.9064 43.764 37.1775 43.6114 37.37 43.3812C37.5624 43.1509 37.6631 42.859 37.6529 42.5604C37.6427 42.2618 37.5224 41.9773 37.3147 41.7604C36.8631 41.3909 36.5291 40.9002 36.3529 40.3474H36.3653ZM32.441 50.8284C32.1414 50.8649 31.8656 51.0085 31.6656 51.2321C31.4656 51.4558 31.3552 51.744 31.3552 52.0426C31.3552 52.3411 31.4656 52.6294 31.6656 52.853C31.8656 53.0766 32.1414 53.2202 32.441 53.2567H34.8964C35.0703 53.2779 35.2467 53.2623 35.4141 53.211C35.5814 53.1597 35.7358 53.0737 35.8671 52.959C35.9983 52.8442 36.1034 52.7031 36.1754 52.5451C36.2473 52.3871 36.2846 52.2158 36.2846 52.0426C36.2846 51.8693 36.2473 51.698 36.1754 51.54C36.1034 51.382 35.9983 51.241 35.8671 51.1262C35.7358 51.0114 35.5814 50.9255 35.4141 50.8741C35.2467 50.8228 35.0703 50.8072 34.8964 50.8284H32.441ZM39.8072 50.8284C39.5076 50.8649 39.2318 51.0085 39.0318 51.2321C38.8318 51.4558 38.7214 51.744 38.7214 52.0426C38.7214 52.3411 38.8318 52.6294 39.0318 52.853C39.2318 53.0766 39.5076 53.2202 39.8072 53.2567H42.2626C42.4365 53.2779 42.6129 53.2623 42.7803 53.211C42.9476 53.1597 43.102 53.0737 43.2333 52.959C43.3645 52.8442 43.4696 52.7031 43.5416 52.5451C43.6136 52.3871 43.6508 52.2158 43.6508 52.0426C43.6508 51.8693 43.6136 51.698 43.5416 51.54C43.4696 51.382 43.3645 51.241 43.2333 51.1262C43.102 51.0114 42.9476 50.9255 42.7803 50.8741C42.6129 50.8228 42.4365 50.8072 42.2626 50.8284H39.8072ZM46.7807 50.6938C46.5404 50.7757 46.3315 50.9288 46.1823 51.1322C46.0331 51.3357 45.9509 51.5796 45.9468 51.8309C45.9428 52.0822 46.0171 52.3286 46.1596 52.5367C46.3022 52.7447 46.5061 52.9043 46.7435 52.9937C46.9972 53.0792 47.2723 53.0792 47.5259 52.9937C48.5391 52.6768 49.4365 52.074 50.1081 51.2596C50.2371 51.1403 50.3387 50.995 50.4062 50.8336C50.4737 50.6722 50.5054 50.4984 50.4993 50.3238C50.4931 50.1492 50.4493 49.978 50.3706 49.8216C50.292 49.6652 50.1804 49.5273 50.0434 49.4171C49.9063 49.3069 49.747 49.227 49.5762 49.1828C49.4053 49.1386 49.2268 49.1311 49.0528 49.1607C48.8787 49.1904 48.7131 49.2566 48.5671 49.3549C48.4211 49.4532 48.2981 49.5812 48.2063 49.7304L48.1444 49.8008C47.7799 50.213 47.3083 50.5186 46.7807 50.6847V50.6938ZM48.5681 46.51C48.7436 46.7454 48.9986 46.9107 49.2868 46.9762C49.575 47.0416 49.8774 47.0028 50.1392 46.8667C50.4009 46.7306 50.6047 46.5063 50.7136 46.2344C50.8225 45.9625 50.8293 45.661 50.7328 45.3845C50.2417 44.4535 49.4903 43.6817 48.5681 43.1611C48.4278 43.0567 48.2667 42.9831 48.0955 42.945C47.9242 42.907 47.7467 42.9054 47.5748 42.9404C47.4029 42.9755 47.2405 43.0463 47.0984 43.1482C46.9563 43.25 46.8377 43.3807 46.7506 43.5314C46.6634 43.682 46.6097 43.8493 46.593 44.0222C46.5763 44.195 46.597 44.3693 46.6536 44.5336C46.7103 44.6979 46.8017 44.8484 46.9217 44.975C47.0417 45.1017 47.1876 45.2017 47.3497 45.2683C47.8598 45.5603 48.2742 45.9914 48.5434 46.51H48.5681ZM52.4862 29.1324C51.8844 29.7862 51.192 30.3525 50.4297 30.8145C50.3803 30.8455 50.3229 30.862 50.2643 30.862C50.2057 30.862 50.1483 30.8455 50.0989 30.8145C49.0112 30.1364 48.0454 29.2837 47.2414 28.2914C46.2575 27.1074 45.5955 25.6948 45.3179 24.1871C45.0627 22.8693 45.3083 21.5047 46.0075 20.3549C46.2931 19.909 46.6527 19.514 47.0713 19.1866C47.9871 18.4315 49.1385 18.0123 50.3308 18C51.1207 18.0226 51.8925 18.2393 52.5766 18.6307C53.2606 19.0221 53.8354 19.5758 54.2489 20.2418C55.0066 21.4651 55.1767 23.0493 54.8365 24.6428C54.469 26.3179 53.6579 27.8662 52.4862 29.1294V29.1324ZM50.1143 20.4895C50.5951 20.4895 51.065 20.6305 51.4647 20.8946C51.8644 21.1588 52.176 21.5342 52.36 21.9735C52.5439 22.4127 52.5921 22.896 52.4983 23.3623C52.4045 23.8286 52.173 24.257 51.8331 24.5932C51.4931 24.9293 51.06 25.1583 50.5885 25.251C50.117 25.3438 49.6283 25.2962 49.1841 25.1143C48.74 24.9323 48.3604 24.6242 48.0933 24.2289C47.8262 23.8336 47.6837 23.3688 47.6837 22.8934C47.6832 22.5776 47.7458 22.2648 47.8678 21.973C47.9899 21.6811 48.1689 21.416 48.3947 21.1927C48.6205 20.9694 48.8886 20.7923 49.1837 20.6717C49.4787 20.551 49.795 20.4891 50.1143 20.4895ZM21.8834 37.0046C22.3641 37.0046 22.834 37.1456 23.2338 37.4098C23.6335 37.6739 23.945 38.0493 24.129 38.4886C24.313 38.9278 24.3611 39.4112 24.2673 39.8775C24.1735 40.3438 23.942 40.7721 23.6021 41.1083C23.2622 41.4445 22.8291 41.6734 22.3576 41.7662C21.8861 41.8589 21.3973 41.8113 20.9532 41.6294C20.509 41.4474 20.1294 41.1393 19.8623 40.744C19.5952 40.3487 19.4527 39.8839 19.4527 39.4085C19.4523 39.0927 19.5149 38.7799 19.6369 38.4881C19.7589 38.1963 19.9379 37.9311 20.1637 37.7078C20.3895 37.4845 20.6576 37.3075 20.9527 37.1868C21.2478 37.0661 21.564 37.0042 21.8834 37.0046Z" fill="url(#paint0_linear_2113_623)"/>
</g>
<defs>
<linearGradient id="paint0_linear_2113_623" x1="16.9883" y1="36.5107" x2="55.0038" y2="36.5107" gradientUnits="userSpaceOnUse">
<stop stop-color="#5D3DAF"/>
<stop offset="1" stop-color="#5598F7"/>
</linearGradient>
<clipPath id="clip0_2113_623">
<rect width="38" height="37" fill="white" transform="translate(17 18)"/>
</clipPath>
</defs>
</svg>
