<svg width="73" height="73" viewBox="0 0 73 73" fill="none" xmlns="http://www.w3.org/2000/svg">
<circle cx="36.3462" cy="36.3462" r="35.3462" fill="white" fill-opacity="0.2" stroke="#E2E0FD" stroke-width="2"/>
<g clip-path="url(#clip0_2113_629)">
<path fill-rule="evenodd" clip-rule="evenodd" d="M36.499 18.003C37.4837 17.9605 38.2605 18.3067 39.0434 18.8076C40.037 19.4422 41.1572 20.6992 42.5392 21.4947C44.4814 22.6151 48.0826 21.0697 49.9254 23.8327C51.0003 25.4419 51.0515 26.705 51.1298 27.9529C51.2171 29.298 51.449 30.5368 52.816 32.3585C55.0773 35.3735 55.5471 37.3805 54.3818 39.4725C53.5868 40.8996 51.9157 41.692 51.5273 42.5938C50.7053 44.5158 51.6146 45.9641 50.4885 48.2048C49.7056 49.7594 48.4981 50.7826 46.8902 51.3049C45.5353 51.7451 44.1712 51.1075 43.0873 51.569C41.1782 52.3767 39.7721 54.2561 38.2515 54.7328C37.6643 54.915 37.0802 55.0061 36.499 55.003C35.9149 55.0061 35.3307 54.918 34.7466 54.7328C33.229 54.2561 31.8198 52.3797 29.9108 51.569C28.8238 51.1075 27.4628 51.7451 26.1078 51.3049C24.4999 50.7826 23.2925 49.7594 22.5096 48.2048C21.3805 45.9641 22.2928 44.5158 21.4678 42.5938C21.0794 41.692 19.4082 40.8996 18.6133 39.4725C17.448 37.3805 17.9208 35.3735 20.1791 32.3585C21.5461 30.5368 21.7779 29.298 21.8652 27.9529C21.9465 26.705 21.9947 25.4419 23.0697 23.8327C24.9124 21.0697 28.5137 22.6151 30.4558 21.4947C31.8379 20.6992 32.955 19.4422 33.9517 18.8076C34.7376 18.3067 35.5144 17.9605 36.499 18.003ZM33.3043 34.3655L35.671 36.6366L39.745 32.4618C40.1485 32.0488 40.4014 31.7179 40.8982 32.234L42.5121 33.901C43.0421 34.4293 43.015 34.739 42.5152 35.2308L36.5924 41.0939C35.5385 42.1353 35.7222 42.1991 34.6533 41.1303L30.5883 37.0526C30.3655 36.8097 30.3896 36.5638 30.6335 36.3209L32.5064 34.3625C32.7864 34.0649 33.0122 34.0831 33.3043 34.3655ZM36.4448 26.371C42.1508 26.371 46.7728 31.0347 46.7728 36.7854C46.7728 42.5391 42.1478 47.1998 36.4448 47.1998C30.7389 47.1998 26.1169 42.5361 26.1169 36.7854C26.1169 31.0317 30.7419 26.371 36.4448 26.371Z" fill="url(#paint0_linear_2113_629)"/>
</g>
<defs>
<linearGradient id="paint0_linear_2113_629" x1="17.998" y1="36.5013" x2="54.9977" y2="36.5013" gradientUnits="userSpaceOnUse">
<stop stop-color="#5D3DAF"/>
<stop offset="1" stop-color="#5598F7"/>
</linearGradient>
<clipPath id="clip0_2113_629">
<rect width="37" height="37" fill="white" transform="translate(18 18)"/>
</clipPath>
</defs>
</svg>
