<svg width="73" height="73" viewBox="0 0 73 73" fill="none" xmlns="http://www.w3.org/2000/svg">
<circle cx="36.3462" cy="36.3462" r="35.3462" fill="white" fill-opacity="0.2" stroke="#E2E0FD" stroke-width="2"/>
<g clip-path="url(#clip0_2113_616)">
<path fill-rule="evenodd" clip-rule="evenodd" d="M45.8379 20.7064C45.4314 20.4231 44.9707 20.2995 44.501 20.393C44.0313 20.4864 43.6338 20.7396 43.3508 21.1344L41.7639 23.3736C41.2008 23.1234 40.6137 22.9336 39.9874 22.7769C39.3611 22.6201 38.7739 22.4936 38.1476 22.4001L37.6448 19.4708C37.5544 18.9675 37.2985 18.6028 36.9372 18.3195C36.5307 18.0362 36.1001 17.9428 35.6003 18.0362L31.9298 18.6962C31.46 18.7897 31.0927 19.0097 30.7795 19.4165C30.4965 19.8234 30.3731 20.2543 30.4664 20.7546L30.9361 23.4308C30.3399 23.681 29.7859 23.9643 29.2529 24.2988C28.72 24.6122 28.1991 24.989 27.7263 25.3536L25.2392 23.6388C24.8327 23.3555 24.4021 23.2319 23.9324 23.3254C23.4627 23.4188 23.0652 23.672 22.7821 24.0788L20.6654 27.1076C20.3823 27.5145 20.2589 27.9756 20.3522 28.4458C20.4456 28.9491 20.6985 29.3137 21.105 29.597L23.3422 31.1853C23.0923 31.7488 22.9026 32.3365 22.746 32.9634C22.5894 33.5903 22.463 34.1779 22.3696 34.8048L19.4459 35.3051C16.9648 35.7722 18.3679 39.3315 18.672 41.0252C18.7654 41.4954 18.9852 41.863 19.3827 42.1765C19.7891 42.4598 20.2197 42.5833 20.7196 42.4899L23.3934 42.0198C23.6433 42.6165 23.9264 43.171 24.2606 43.7045C24.5737 44.2379 24.9501 44.7593 25.3145 45.2626L23.6012 47.7218C23.3181 48.1287 23.1947 48.5596 23.288 49.0298C23.3814 49.4999 23.6313 49.8977 24.0287 50.181L27.0789 52.3238C27.4854 52.6071 27.9461 52.7005 28.4159 52.6071C28.8856 52.5137 29.283 52.2937 29.5962 51.8959L31.186 49.6265C31.7491 49.8766 32.3363 50.0665 32.9626 50.2232C33.5889 50.3799 34.173 50.5065 34.8023 50.5999L35.3052 53.5293C35.3985 54.0326 35.6515 54.3973 36.0158 54.6806C36.4223 54.9639 36.8529 55.0573 37.3527 54.9639L41.0202 54.3039C41.4899 54.2104 41.8573 53.9904 42.1704 53.5926C42.4535 53.1858 42.5769 52.7548 42.4836 52.2545L42.0138 49.5783C42.61 49.3281 43.1641 49.0448 43.697 48.7103C44.23 48.3969 44.7539 48.0292 45.2537 47.6555L47.7108 49.3703C48.1173 49.6536 48.5479 49.7772 49.0477 49.6838C49.5505 49.5903 49.9149 49.3372 50.1979 48.9424L52.3388 45.8864C52.6218 45.4796 52.7152 45.0184 52.6218 44.5483C52.5285 44.0782 52.3087 43.6803 51.9022 43.3669L49.6318 41.8088C49.8818 41.2452 50.0715 40.6575 50.228 40.0307C50.3846 39.4038 50.5111 38.8161 50.6044 38.1893L53.5312 37.686C54.034 37.5925 54.3984 37.3394 54.6814 36.9657C54.9644 36.5588 55.0578 36.1278 54.9644 35.6276L54.305 31.9568C54.2117 31.4866 53.9919 31.119 53.5944 30.8055C53.1879 30.5222 52.7573 30.3987 52.2575 30.4921L49.5837 30.9622C49.3337 30.3987 49.0507 29.8441 48.7165 29.2776C48.4033 28.714 48.0269 28.2227 47.6626 27.7496L49.3759 25.2602C49.6589 24.8533 49.7824 24.4224 49.689 23.9522C49.5957 23.4821 49.3428 23.0843 48.9483 22.801L45.9222 20.6733L45.8379 20.7064ZM34.0134 38.8523H38.9335C37.8646 36.3388 35.0824 36.3388 34.0134 38.8523ZM31.0505 41.8058V40.8806H32.4447C32.4778 39.0271 33.3781 36.9627 35.1667 36.1881C33.3841 35.4166 32.4838 33.3582 32.4447 31.5047H31.0505V30.5795H41.9506V31.5047H40.5053C40.4692 33.3552 39.5688 35.4166 37.7833 36.1881C39.5688 36.9596 40.4692 39.0241 40.5053 40.8806H41.9506V41.8058H31.0505ZM39.3551 31.7036H33.5919C33.7756 36.595 39.1714 36.601 39.3551 31.7036ZM34.6849 26.6767C36.0068 26.4597 37.3467 26.4597 38.6685 26.7641C39.9482 27.0654 41.1135 27.5838 42.1764 28.3041C43.1972 29.0395 44.1035 29.9737 44.8382 31.0949C45.5729 32.2039 46.0336 33.4576 46.2474 34.7807C46.4642 36.1037 46.4642 37.4449 46.1601 38.7679C45.859 40.0488 45.3411 41.2151 44.6214 42.2789C43.8867 43.3006 42.9533 44.2077 41.8302 44.9431C40.7221 45.6785 39.4695 46.1396 38.1476 46.3535C36.8258 46.5705 35.4858 46.5705 34.164 46.2662C32.8843 45.9648 31.719 45.4464 30.6561 44.7261C29.6353 43.9908 28.729 43.0565 27.9943 41.9354C27.2596 40.8263 26.7989 39.5726 26.5851 38.2495C26.3683 36.9265 26.3683 35.5854 26.6724 34.2623C26.9736 32.9815 27.4915 31.8151 28.2111 30.7513C28.9458 29.7296 29.8792 28.8225 31.0024 28.0871C32.1255 27.3668 33.36 26.8907 34.6849 26.6767Z" fill="url(#paint0_linear_2113_616)"/>
</g>
<defs>
<linearGradient id="paint0_linear_2113_616" x1="18.002" y1="36.5" x2="54.9994" y2="36.5" gradientUnits="userSpaceOnUse">
<stop stop-color="#5D3DAF"/>
<stop offset="1" stop-color="#5598F7"/>
</linearGradient>
<clipPath id="clip0_2113_616">
<rect width="37" height="37" fill="white" transform="translate(18 18)"/>
</clipPath>
</defs>
</svg>
