<svg width="111" height="111" viewBox="0 0 111 111" fill="none" xmlns="http://www.w3.org/2000/svg">
<circle cx="55.5" cy="55.5" r="53.5" fill="url(#paint0_linear_2105_299)" stroke="white" stroke-width="4"/>
<g clip-path="url(#clip0_2105_299)">
<path fill-rule="evenodd" clip-rule="evenodd" d="M68.8307 57.4994C74.0728 53.49 81.5577 54.499 85.5568 59.7616C89.5505 65.0242 88.5455 72.5385 83.3033 76.5531C78.0612 80.5625 70.5763 79.5535 66.5773 74.2909C65.5458 72.9314 64.8475 71.4233 64.472 69.862L56.9341 70.8019C56.1936 70.9028 55.5165 70.3824 55.416 69.639C55.3155 68.8955 55.8339 68.2158 56.5744 68.1149L64.1387 67.1749C64.0911 63.5107 65.715 59.8837 68.8307 57.4994ZM56.9394 29.1948C62.5994 26.3803 69.4655 28.7063 72.269 34.3884C75.0726 40.0706 72.7557 46.9635 67.0957 49.778C62.6999 51.9606 57.5848 51.0525 54.2046 47.8769L48.7985 52.6616C48.2431 53.1607 47.3915 53.1129 46.8942 52.5554C46.397 51.9978 46.4446 51.1428 47 50.6436L52.4643 45.8058C52.2104 45.4182 51.9777 45.0093 51.7661 44.5844C48.9625 38.9023 51.2794 32.0093 56.9394 29.1948ZM25.3387 67.2387C24.1432 67.7856 23.7888 69.1451 24.0057 70.5948C24.1062 71.2586 24.323 71.9278 24.6246 72.5703C24.9314 73.2129 25.3228 73.8023 25.7883 74.2909C26.8515 75.4167 28.2745 75.9902 29.745 75.2468C29.8614 75.1937 29.983 75.183 30.0888 75.2202C30.1153 75.2096 30.1311 75.1937 30.1682 75.183C30.5437 75.0078 30.8823 74.8485 31.1891 74.6998C31.5382 74.5405 31.8662 74.3971 32.1783 74.259C32.4216 74.1581 32.7019 74.275 32.7972 74.5086C32.8077 74.5246 32.813 74.5458 32.813 74.5617L33.0352 75.1565C33.6065 76.6965 34.1566 78.1887 34.7914 79.3623C34.802 79.3783 34.8813 79.5482 34.9712 79.7075C35.3574 80.451 35.7806 81.2529 36.2355 81.6936C36.6375 82.076 37.1294 82.1397 37.7959 81.46C37.9176 81.3113 38.0393 81.1679 38.1609 81.0298C38.5524 80.5837 38.9385 80.143 39.0284 79.5535C38.9068 79.4261 38.7005 79.373 38.4942 79.3145C37.8065 79.1234 37.1294 78.9428 37.1083 77.5462V77.3444C37.1083 76.9355 37.0977 76.7284 37.0712 76.6487C37.0554 76.6009 36.939 76.5266 36.7221 76.3726L36.6375 76.3195C36.209 76.0168 35.9974 75.5335 35.934 74.9919C35.8546 74.3493 35.9657 73.6165 36.1085 73.0854C36.1508 72.9155 36.2778 72.7934 36.4418 72.7456C41.1919 71.4073 44.26 71.8428 46.7091 72.1986C46.8149 72.2145 46.9207 72.2251 47.0159 72.2411C44.6197 70.3559 42.4509 67.3077 40.8164 64.0896C39.0866 60.6962 37.9493 57.1064 37.7589 54.5096C36.2249 57.6215 33.469 62.608 25.8412 66.6811C25.8306 66.6811 25.8253 66.6917 25.8147 66.6917L25.7513 66.7182C25.6719 66.7554 25.6613 66.7501 25.6455 66.7713C25.6455 66.7979 25.6666 66.7979 25.6455 66.8457C25.6455 66.8563 25.6508 66.8244 25.582 66.9891C25.5291 67.1006 25.4445 67.1802 25.3492 67.228L25.3387 67.2387ZM45.2544 63.7975C45.4131 64.9658 44.5562 67.2227 43.858 67.3555C45.4025 69.5752 47.1693 71.4445 49.0207 72.4429C49.1265 72.4376 49.2111 72.4376 49.3011 72.4216C49.465 72.3898 49.6185 72.3314 49.7824 72.1933C50.1104 71.7472 50.2691 71.11 50.2955 70.324C50.3537 67.9131 49.0789 64.3126 47.2963 60.9246C45.5189 57.5312 43.2391 54.3715 41.3083 52.8421C40.5995 52.2845 39.9541 51.9553 39.4463 51.95C39.3141 51.95 39.24 51.95 39.203 51.9765C39.166 51.9978 39.1025 52.0668 39.0126 52.1836C38.9703 52.2367 38.9227 52.3005 38.875 52.3748C38.8698 52.396 38.8698 52.4014 38.8645 52.4226C38.2985 54.175 39.0443 57.6746 40.5836 61.3282C41.3136 60.8555 44.8577 60.7865 45.265 63.7922L45.2544 63.7975ZM49.1001 73.3934C48.9996 73.4253 48.899 73.4306 48.788 73.3881C48.7033 73.3828 48.6081 73.3775 48.5129 73.3669C47.8834 73.3191 47.2539 73.2341 46.5769 73.1385C44.2705 72.8093 41.3718 72.3898 36.9602 73.5899C36.8755 73.9935 36.8226 74.4661 36.8702 74.875C36.9126 75.1724 37.0025 75.4167 37.177 75.5442L37.2617 75.5973C37.6372 75.8575 37.8277 75.9849 37.9493 76.2823C38.0604 76.5319 38.0604 76.808 38.0657 77.3391V77.5409C38.071 78.2153 38.4148 78.3109 38.7534 78.4065C39.1977 78.5286 39.6368 78.6454 39.9224 79.1977C39.97 79.2774 39.9912 79.3677 39.9912 79.4739C39.9383 80.4722 39.404 81.0776 38.8698 81.6724C38.7534 81.7998 38.6317 81.9432 38.5259 82.0707L38.4995 82.1025C37.3304 83.3345 36.3889 83.1646 35.5848 82.3999C35.0083 81.8529 34.5586 80.982 34.1249 80.1748C34.0879 80.1058 34.0508 80.0315 33.945 79.8403C33.2944 78.6189 32.7284 77.0895 32.1412 75.5176L32.083 75.353C31.9138 75.4326 31.7339 75.507 31.5647 75.5866C31.2155 75.7459 30.877 75.9 30.5596 76.0593C30.512 76.0752 30.4908 76.0964 30.4697 76.1071C30.2581 76.2239 30.1735 76.2823 29.9619 76.2133C28.1158 77.047 26.3702 76.3301 25.0848 74.9653C24.5558 74.4024 24.1009 73.7227 23.757 73.0005C23.4132 72.2782 23.1752 71.5029 23.0588 70.7488C22.7943 68.9486 23.2545 67.2546 24.7674 66.474C24.8256 66.3306 24.8626 66.2615 24.9525 66.1606C25.053 66.0544 25.1429 66.012 25.3175 65.9111L25.381 65.8845C25.3916 65.8845 25.3969 65.8739 25.3969 65.8739C33.2362 61.6946 35.7435 56.5116 37.177 53.559C37.5738 52.7359 37.8912 52.0827 38.2403 51.626C38.4095 51.403 38.5418 51.2596 38.7375 51.1587C38.9332 51.0578 39.1448 51.0153 39.441 51.026C40.1816 51.0366 41.0015 51.4402 41.8743 52.1252C43.9108 53.7343 46.2806 57.0055 48.1109 60.5051C49.9517 64.0152 51.2794 67.7803 51.2159 70.3612C51.1895 71.3649 50.9673 72.2092 50.4807 72.8199C50.4648 72.8412 50.4489 72.8624 50.4225 72.873C50.0998 73.1651 49.7824 73.3032 49.4386 73.3616C49.3169 73.3775 49.1953 73.3934 49.0842 73.3987L49.1001 73.3934ZM58.6586 39.3802L61.7742 36.4701C61.7107 36.3533 61.6631 36.2258 61.6261 36.0984C61.277 34.9354 61.9382 33.7087 63.0966 33.3582C64.2551 33.0077 65.477 33.6715 65.8261 34.8345C66.1753 35.9975 65.514 37.2242 64.3556 37.5747C63.8954 37.7127 63.4299 37.6915 63.0067 37.5481L59.7324 40.6069C59.743 40.6441 59.7588 40.6813 59.7694 40.7184C59.7906 40.7822 59.8064 40.8459 59.817 40.9149L63.8742 41.6053C64.144 41.1433 64.5831 40.7715 65.1385 40.6069C66.2969 40.2564 67.5188 40.9202 67.868 42.0832C68.2171 43.2462 67.5559 44.4729 66.3974 44.8234C65.239 45.1739 64.017 44.5101 63.6679 43.3471C63.6573 43.3046 63.6415 43.2568 63.6309 43.2143L59.5261 42.5187C59.2563 42.9594 58.8278 43.3046 58.2936 43.4639C57.1351 43.8144 55.9132 43.1506 55.5641 41.9876C55.215 40.8246 55.8762 39.5979 57.0346 39.2474C57.6006 39.0669 58.1772 39.1359 58.6586 39.3802ZM78.4209 63.2824L81.1028 62.9372C81.9174 62.831 82.6739 63.4152 82.7797 64.2383L83.1182 66.8722C83.224 67.6954 82.6421 68.4494 81.8222 68.5556L80.6691 68.7043C80.9177 69.3416 81.1928 69.9045 81.8751 70.3665C80.6691 70.2178 79.6905 69.7292 78.9129 68.9274L78.7119 68.9539C78.6325 68.9645 78.5532 68.9699 78.4685 68.9699C78.8653 68.5556 79.1139 68.0618 79.0504 67.5732L78.9076 66.474L78.7806 65.4809L78.5691 63.84C78.5426 63.6435 78.4897 63.4576 78.4209 63.2824ZM70.973 63.0647L75.1255 62.5283C76.2575 62.3849 77.2995 63.1921 77.4476 64.3286L77.8285 67.3077C77.9078 67.9131 77.5534 68.4972 77.0403 68.938C76.5643 69.3469 75.9295 69.6496 75.4005 69.7186L75.3582 69.7239C75.0461 70.239 74.66 70.6957 74.205 71.0887C73.7025 71.5242 73.1101 71.88 72.433 72.1455C72.306 72.1933 72.1579 72.1773 72.0468 72.0765C71.8881 71.9384 71.8723 71.6994 72.0098 71.5401C72.2796 71.2268 72.4436 70.9188 72.5546 70.6055C72.6128 70.4302 72.6604 70.2497 72.6922 70.0638L71.8829 70.17C71.3169 70.2444 70.772 70.0797 70.3541 69.7505C69.9362 69.4266 69.64 68.938 69.566 68.3698L69.1851 65.3906C69.037 64.2595 69.841 63.2134 70.973 63.0647Z" fill="white"/>
</g>
<defs>
<linearGradient id="paint0_linear_2105_299" x1="0" y1="55.5" x2="111" y2="55.5" gradientUnits="userSpaceOnUse">
<stop stop-color="#5D3DAF"/>
<stop offset="1" stop-color="#5598F7"/>
</linearGradient>
<clipPath id="clip0_2105_299">
<rect width="65" height="55" fill="white" transform="translate(23 28)"/>
</clipPath>
</defs>
</svg>
