<svg width="126" height="44" viewBox="0 0 126 44" fill="none" xmlns="http://www.w3.org/2000/svg">
<path d="M68.6715 19.9924C68.6715 20.7817 68.3681 21.4776 67.7612 22.0798C67.1544 22.6821 66.397 23.1498 65.489 23.4829C64.581 23.816 63.6913 24.003 62.8198 24.0441C62.692 25.0707 62.5985 25.8464 62.5392 26.3711C62.4844 26.8958 62.457 27.2722 62.457 27.5004C62.457 27.7103 62.3772 27.8859 62.2175 28.0274C62.0624 28.1688 61.8616 28.2395 61.6152 28.2395C61.4008 28.2395 61.2205 28.1802 61.0745 28.0616C60.9331 27.9475 60.8624 27.8015 60.8624 27.6236C60.8624 27.5825 60.8646 27.5506 60.8692 27.5278C60.8738 27.4867 60.8943 27.3795 60.9308 27.2061C61.0494 26.6221 61.1681 25.9924 61.2867 25.3171C61.4099 24.6373 61.5331 23.8091 61.6563 22.8327C61.7338 22.1848 61.8091 21.6008 61.8821 21.0806C61.9049 20.9118 61.9597 20.4738 62.0464 19.7665C62.1376 19.0593 62.197 18.5414 62.2243 18.2129L62.1422 18.2266C61.946 18.2266 61.7863 18.1604 61.6631 18.0281C61.5445 17.8912 61.4852 17.7224 61.4852 17.5217C61.4852 17.2251 61.6312 17.0084 61.9232 16.8715C62.2152 16.7346 62.6441 16.6661 63.2099 16.6661C64.1087 16.6661 64.9665 16.762 65.7833 16.9536C66.6 17.1407 67.2844 17.4829 67.8365 17.9802C68.3932 18.473 68.6715 19.1437 68.6715 19.9924ZM62.9703 22.8601C63.5224 22.819 64.143 22.6798 64.8319 22.4426C65.5209 22.2053 66.1141 21.8745 66.6114 21.4502C67.1133 21.0258 67.3643 20.5308 67.3643 19.965C67.3643 19.3125 67.0517 18.8266 66.4266 18.5072C65.8015 18.1878 64.8799 18.0281 63.6616 18.0281H63.5932C63.4289 19.1779 63.2213 20.784 62.9703 22.8464V22.8601ZM71.8285 28.2395C71.6232 28.2395 71.4476 28.1779 71.3015 28.0548C71.1601 27.9361 71.0894 27.7947 71.0894 27.6304C71.0894 27.5483 71.1008 27.4456 71.1236 27.3224C71.1464 27.1992 71.1738 27.0646 71.2057 26.9186C71.3061 26.476 71.3905 26.0312 71.459 25.584C71.6141 24.6259 71.7533 23.6471 71.8765 22.6479C72.0909 20.9141 72.2301 19.6707 72.2939 18.9179C72.3624 18.1604 72.4035 17.581 72.4171 17.1795C72.4263 17.0061 72.4331 16.9034 72.4377 16.8715C72.4605 16.689 72.5426 16.5475 72.6841 16.4471C72.8255 16.3422 73.0126 16.2897 73.2453 16.2897C73.4552 16.2897 73.6285 16.3513 73.7654 16.4745C73.9023 16.5931 73.9708 16.7437 73.9708 16.9262C73.9708 16.9901 73.9388 17.1612 73.8749 17.4395C73.7974 17.7407 73.7381 18.0167 73.697 18.2677C73.6149 18.7741 73.519 19.4152 73.4095 20.1909C73.3046 20.9665 73.2065 21.7513 73.1152 22.5452C72.8689 24.7217 72.7297 26.2433 72.6977 27.1103C72.6795 27.384 72.6658 27.562 72.6567 27.6441C72.6339 27.8266 72.5495 27.9703 72.4035 28.0753C72.2574 28.1848 72.0658 28.2395 71.8285 28.2395ZM83.4586 20.5331C83.4586 20.6289 83.4358 20.7681 83.3902 20.9506C83.3491 21.1331 83.324 21.2403 83.3149 21.2722C83.2328 21.6053 83.1848 21.8129 83.1712 21.8951C83.0525 22.4745 82.9156 23.3072 82.7605 24.3932C82.6099 25.4791 82.5347 26.1863 82.5347 26.5148C82.5347 26.6608 82.5483 26.8479 82.5757 27.076C82.6031 27.2951 82.6168 27.4616 82.6168 27.5757C82.6168 27.7719 82.5552 27.9316 82.432 28.0548C82.3134 28.1779 82.1537 28.2395 81.9529 28.2395C81.6883 28.2395 81.4944 28.1483 81.3712 27.9658C81.2525 27.7787 81.1932 27.5323 81.1932 27.2266C81.1932 26.962 81.2115 26.6608 81.248 26.3232C80.9103 26.9346 80.5134 27.4183 80.0571 27.7741C79.6008 28.13 79.1423 28.308 78.6814 28.308C78.1841 28.308 77.7575 28.1848 77.4016 27.9384C77.0502 27.692 76.781 27.3293 76.594 26.8502C76.4069 26.3665 76.3134 25.7802 76.3134 25.0913C76.3134 24.1696 76.4913 23.3049 76.8472 22.4973C77.2031 21.6897 77.6822 21.0464 78.2845 20.5673C78.8913 20.0836 79.5506 19.8418 80.2624 19.8418C80.6274 19.8418 80.9468 19.9125 81.2206 20.054C81.4989 20.1909 81.7407 20.4008 81.9461 20.6836C81.9826 20.4236 82.0715 20.2274 82.213 20.095C82.359 19.9627 82.5529 19.8966 82.7947 19.8966C82.9772 19.8966 83.1324 19.9582 83.2601 20.0814C83.3925 20.2046 83.4586 20.3551 83.4586 20.5331ZM78.7909 27.1513C79.0966 27.1513 79.432 27.0008 79.797 26.6996C80.162 26.3939 80.5042 25.9901 80.8236 25.4882C81.1476 24.9863 81.4031 24.4547 81.5902 23.8935L81.6381 23.5582C81.743 22.7825 81.8183 22.1186 81.8639 21.5665C81.8229 21.5802 81.7795 21.5871 81.7339 21.5871C81.6153 21.5871 81.5035 21.5392 81.3985 21.4433C81.2206 21.2745 81.0472 21.1468 80.8784 21.0601C80.7141 20.9688 80.5202 20.9232 80.2966 20.9232C79.8312 20.9232 79.3841 21.1239 78.9552 21.5255C78.5308 21.927 78.1886 22.4563 77.9286 23.1133C77.6685 23.7703 77.5385 24.457 77.5385 25.1734C77.5385 25.8532 77.6411 26.3528 77.8464 26.6722C78.0563 26.9916 78.3712 27.1513 78.7909 27.1513ZM88.8605 28.308C88.3221 28.308 87.8545 28.1871 87.4575 27.9452C87.0605 27.7034 86.7525 27.3475 86.5335 26.8776C86.3145 26.4076 86.205 25.8395 86.205 25.1734C86.205 24.2517 86.3556 23.3825 86.6567 22.5658C86.9579 21.749 87.3891 21.092 87.9503 20.5947C88.516 20.0928 89.1731 19.8418 89.9214 19.8418C90.291 19.8418 90.6491 19.9422 90.9959 20.143C91.3472 20.3437 91.6301 20.5992 91.8446 20.9095C92.0636 21.2198 92.1731 21.5277 92.1731 21.8335C92.1731 21.9703 92.1411 22.0935 92.0773 22.203C92.018 22.3125 91.9404 22.3992 91.8446 22.4631C91.7488 22.5224 91.6507 22.5521 91.5503 22.5521C91.4316 22.5521 91.329 22.5179 91.2423 22.4494C91.1602 22.3764 91.0917 22.2578 91.037 22.0935C90.9046 21.7148 90.7358 21.4297 90.5305 21.238C90.3297 21.0418 90.0742 20.9437 89.764 20.9437C89.367 20.9437 88.9906 21.1468 88.6347 21.5528C88.2788 21.9544 87.9936 22.4859 87.7792 23.1475C87.5647 23.8046 87.4575 24.4913 87.4575 25.2076C87.4575 25.8464 87.5807 26.3414 87.8271 26.6928C88.078 27.0441 88.4225 27.2198 88.8605 27.2198C89.2256 27.2198 89.5541 27.1376 89.8461 26.9734C90.1427 26.8091 90.4324 26.5171 90.7153 26.0973C90.8248 25.9376 90.9411 25.8236 91.0643 25.7551C91.1875 25.6867 91.3267 25.6525 91.4818 25.6525C91.6233 25.6525 91.7419 25.7118 91.8377 25.8304C91.9381 25.949 91.9883 26.0928 91.9883 26.2616C91.9883 26.581 91.8332 26.9004 91.5229 27.2198C91.2172 27.5392 90.8202 27.7992 90.332 28C89.8484 28.2053 89.3579 28.308 88.8605 28.308ZM100.381 25.6798C100.564 25.6798 100.716 25.7414 100.84 25.8646C100.963 25.9833 101.024 26.1293 101.024 26.3027C101.024 26.6038 100.856 26.9118 100.518 27.2266C100.18 27.5369 99.756 27.7947 99.245 28C98.7385 28.2053 98.2526 28.308 97.7872 28.308C97.2214 28.308 96.7263 28.1848 96.302 27.9384C95.8777 27.692 95.5492 27.3384 95.3165 26.8776C95.0838 26.4122 94.9674 25.8646 94.9674 25.235C94.9674 24.3726 95.1453 23.5239 95.5012 22.689C95.8571 21.854 96.3453 21.1719 96.9659 20.6426C97.5864 20.1087 98.2754 19.8418 99.0328 19.8418C99.4982 19.8418 99.8974 19.9331 100.231 20.1156C100.564 20.2935 100.817 20.549 100.99 20.8821C101.168 21.2106 101.257 21.5985 101.257 22.0456C101.257 22.6616 101.015 23.1954 100.532 23.6471C100.048 24.0989 99.4229 24.4456 98.6564 24.6874C97.8944 24.9293 97.0982 25.0616 96.2678 25.0844V25.2144C96.2678 25.8532 96.3955 26.362 96.6511 26.7407C96.9066 27.1194 97.2761 27.3087 97.7598 27.3087C98.1294 27.3087 98.4762 27.2106 98.8001 27.0144C99.1241 26.8137 99.448 26.4715 99.772 25.9878C99.8358 25.8875 99.9203 25.8122 100.025 25.762C100.13 25.7072 100.249 25.6798 100.381 25.6798ZM98.8891 20.9779C98.4876 20.9779 98.1134 21.1285 97.7666 21.4297C97.4244 21.7262 97.1324 22.1163 96.8906 22.6C96.6533 23.0836 96.4822 23.5992 96.3773 24.1468C96.9248 24.1285 97.4838 24.0236 98.0541 23.8319C98.629 23.6403 99.1058 23.3825 99.4845 23.0585C99.8632 22.7346 100.053 22.3787 100.053 21.9909C100.053 21.7992 100.002 21.6281 99.902 21.4776C99.8062 21.3224 99.6693 21.2015 99.4914 21.1148C99.3134 21.0236 99.1127 20.9779 98.8891 20.9779ZM108.931 19.8418C109.155 19.8418 109.335 19.908 109.472 20.0403C109.613 20.1681 109.684 20.3392 109.684 20.5536C109.684 20.7589 109.623 20.93 109.499 21.0669C109.381 21.2038 109.223 21.2722 109.027 21.2722C108.794 21.2722 108.61 21.2791 108.473 21.2928C108.336 21.3019 108.194 21.3316 108.048 21.3817C107.902 21.4274 107.752 21.5049 107.597 21.6144C107.236 21.8654 106.889 22.2624 106.556 22.8053C106.228 23.3437 105.97 23.93 105.783 24.5643C105.582 26.1658 105.482 27.1696 105.482 27.5757C105.482 27.7719 105.407 27.9316 105.256 28.0548C105.105 28.1779 104.912 28.2395 104.674 28.2395C104.469 28.2395 104.3 28.1802 104.168 28.0616C104.035 27.943 103.969 27.7947 103.969 27.6167C103.969 27.5437 103.983 27.4411 104.01 27.3087C104.038 27.1764 104.07 27.035 104.106 26.8844C104.152 26.7065 104.2 26.4966 104.25 26.2548C104.369 25.6798 104.505 24.8586 104.661 23.7909C104.816 22.7232 104.893 22.0228 104.893 21.6897C104.893 21.53 104.88 21.3224 104.852 21.0669C104.834 20.857 104.825 20.7065 104.825 20.6152C104.825 20.3916 104.882 20.2182 104.996 20.095C105.11 19.9719 105.272 19.9103 105.482 19.9103C105.765 19.9103 105.959 20.0084 106.064 20.2046C106.169 20.4008 106.221 20.6859 106.221 21.0601C106.221 21.2471 106.196 21.5711 106.146 22.0319L106.125 22.1962C106.508 21.4251 106.94 20.8411 107.419 20.4441C107.902 20.0426 108.407 19.8418 108.931 19.8418ZM112.78 28.2395C112.551 28.2395 112.369 28.1734 112.232 28.0411C112.095 27.9087 112.027 27.7376 112.027 27.5278C112.027 27.4411 112.075 27.1764 112.17 26.7338C112.307 26.0905 112.428 25.4791 112.533 24.8996C112.643 24.3201 112.748 23.6312 112.848 22.8327C113.076 21.0532 113.229 19.7893 113.307 19.0411C113.389 18.2882 113.43 17.7726 113.43 17.4943C113.43 17.2525 113.51 17.0654 113.669 16.9331C113.829 16.7962 114.048 16.7277 114.326 16.7277C114.523 16.7277 114.682 16.7893 114.805 16.9125C114.929 17.0357 114.99 17.1863 114.99 17.3642C114.99 17.4327 114.977 17.5353 114.949 17.6722C114.926 17.8091 114.897 17.9665 114.86 18.1445C114.737 18.7285 114.614 19.3696 114.491 20.0677C114.372 20.7658 114.244 21.6669 114.107 22.7711C113.966 23.8935 113.847 24.8928 113.751 25.7688C113.66 26.6449 113.605 27.238 113.587 27.5483C113.578 27.7582 113.501 27.9247 113.355 28.0479C113.213 28.1757 113.021 28.2395 112.78 28.2395ZM125.108 16.7277C125.34 16.7277 125.539 16.7779 125.703 16.8783C125.872 16.9787 125.956 17.1452 125.956 17.3779C125.956 17.6334 125.879 17.8274 125.724 17.9597C125.573 18.0874 125.359 18.1513 125.08 18.1513C124.98 18.1513 124.779 18.1376 124.478 18.1103C124.154 18.0829 123.864 18.0601 123.609 18.0418C123.358 18.0236 123.02 18.0122 122.596 18.0076C122.468 18.6509 122.347 19.3103 122.233 19.9855C122.119 20.6563 121.989 21.5848 121.843 22.7711C121.702 23.8935 121.583 24.8928 121.487 25.7688C121.396 26.6449 121.341 27.238 121.323 27.5483C121.314 27.7582 121.236 27.9247 121.09 28.0479C120.949 28.1757 120.757 28.2395 120.515 28.2395C120.287 28.2395 120.105 28.1734 119.968 28.0411C119.831 27.9087 119.763 27.7376 119.763 27.5278C119.763 27.473 119.776 27.3658 119.804 27.2061C119.836 27.0464 119.874 26.8616 119.92 26.6517C120.048 26.0266 120.164 25.4289 120.269 24.8586C120.374 24.2836 120.479 23.6084 120.584 22.8327C120.944 20.2319 121.15 18.6213 121.2 18.0007L119.01 18.0076C118.804 18.0076 118.629 17.9528 118.483 17.8433C118.337 17.7338 118.264 17.5764 118.264 17.3711C118.264 17.1703 118.328 17.0129 118.455 16.8988C118.583 16.7848 118.759 16.7277 118.982 16.7277C119.283 16.7277 119.578 16.7346 119.865 16.7483C120.431 16.7757 121.159 16.7893 122.048 16.7893C122.687 16.7893 123.367 16.7757 124.088 16.7483C124.234 16.7437 124.391 16.7392 124.56 16.7346C124.734 16.73 124.916 16.7277 125.108 16.7277Z" fill="white"/>
<path d="M7.42294 1.30781C7.67826 0.0311859 9.01872 -0.0751998 9.65704 0.0311859C21.9978 5.6058 26.0405 11.4322 26.5192 13.6486C18.519 9.13781 11.4124 15.7763 8.85917 19.6594C7.86537 21.1708 6.19951 24.8368 5.77396 26.5212C3.98668 23.1169 5.02926 18.2586 5.77396 16.255C7.39102 11.5315 10.7386 8.64843 12.2103 7.79735C12.2103 5.90441 11.0639 6.32995 10.4549 6.73349L7.42294 9.18036V1.30781Z" fill="white"/>
<path d="M45.6585 18.4132C46.7133 19.1762 46.2527 20.4395 45.8905 20.9758C35.6893 29.8811 28.7095 31.1351 26.4947 30.6489C33.9236 25.2487 30.8412 16.0253 28.3714 12.0886C27.4101 10.5564 24.7687 7.51696 23.4137 6.42954C27.253 6.21965 31.2378 9.18795 32.7504 10.6983C36.3738 14.1331 37.6038 18.3763 37.7659 20.0686C39.4874 20.8557 39.5771 19.6362 39.4633 18.9146L38.4987 15.1397L45.6585 18.4132Z" fill="white"/>
<path d="M9.02934 41.0599C7.76039 41.351 7.11326 40.1723 6.94832 39.5465C6.96733 26.0051 10.6214 19.9274 12.446 18.5813C11.6159 27.7279 20.586 31.4841 25.1749 32.2189C26.961 32.5049 30.9877 32.5195 32.6984 32.2162C30.3275 35.2432 25.4693 36.2862 23.3366 36.4294C18.3655 36.8933 14.3626 35.0238 12.9825 34.031C11.2563 34.8079 12.1149 35.6787 12.7328 36.0683L16.2084 37.8291L9.02934 41.0599Z" fill="white"/>
</svg>
