<svg width="365" height="335" viewBox="0 0 365 335" fill="none" xmlns="http://www.w3.org/2000/svg">
<path d="M56.5137 9.9565C58.4576 0.237421 68.6626 -0.572502 73.5221 0.237421C167.473 42.6774 198.25 87.0342 201.895 103.908C140.989 69.5669 86.886 120.106 67.4479 149.668C59.882 161.175 47.1997 189.085 43.9599 201.908C30.3532 175.991 38.2905 139.004 43.9599 123.751C56.2708 87.7902 81.7564 65.8412 92.9603 59.3618C94.3565 49.0004 84.2324 48.1904 79.5966 51.2626L56.5137 69.8908V9.9565Z" fill="url(#paint0_radial_2924_194)"/>
<path d="M347.601 140.181C355.632 145.99 352.125 155.608 349.368 159.691C271.705 227.488 218.567 237.034 201.706 233.333C258.263 192.221 234.796 122.002 215.993 92.0317C208.675 80.3664 188.566 57.2273 178.25 48.9487C207.479 47.3508 237.816 69.9486 249.331 81.4473C276.916 107.596 286.281 139.901 287.515 152.784C297.647 156.72 301.303 149.492 300.437 143.998L293.094 115.26L347.601 140.181Z" fill="url(#paint1_radial_2924_194)"/>
<path d="M68.7428 312.59C59.0822 314.806 54.1555 305.833 52.8998 301.069C53.0445 197.977 80.8632 151.707 94.7544 141.459C88.4342 211.093 156.725 239.689 191.66 245.283C205.258 247.46 235.914 247.571 248.937 245.263C230.887 268.307 193.901 276.248 177.665 277.338C139.82 280.87 109.345 266.637 98.8387 259.079C91.5216 260.795 92.2332 271.623 96.9372 274.589L123.398 287.994L68.7428 312.59Z" fill="url(#paint2_radial_2924_194)"/>
<defs>
<radialGradient id="paint0_radial_2924_194" cx="0" cy="0" r="1" gradientUnits="userSpaceOnUse" gradientTransform="translate(159.555 29.9672) rotate(130.038) scale(178.78 146.497)">
<stop stop-color="#5598F7"/>
<stop offset="1" stop-color="#5C35C1"/>
</radialGradient>
<radialGradient id="paint1_radial_2924_194" cx="0" cy="0" r="1" gradientUnits="userSpaceOnUse" gradientTransform="translate(238.79 159.327) rotate(114.57) scale(82.7241 100.954)">
<stop stop-color="#32A8FC"/>
<stop offset="1" stop-color="#2166C0"/>
</radialGradient>
<radialGradient id="paint2_radial_2924_194" cx="0" cy="0" r="1" gradientUnits="userSpaceOnUse" gradientTransform="translate(71.2736 173.324) rotate(44.0978) scale(145.484 177.545)">
<stop stop-color="#B986FB"/>
<stop offset="1" stop-color="#6883E2"/>
</radialGradient>
</defs>
</svg>
